<?xml version="1.0" standalone="no"?>
<!DOCTYPE svg PUBLIC "-//W3C//DTD SVG 20010904//EN"
 "http://www.w3.org/TR/2001/REC-SVG-20010904/DTD/svg10.dtd">
<svg version="1.0" xmlns="http://www.w3.org/2000/svg"
 width="16.000000pt" height="16.000000pt" viewBox="0 0 16.000000 16.000000"
 preserveAspectRatio="xMidYMid meet">
<metadata>
Created by potrace 1.11, written by Peter Selinger 2001-2013
</metadata>
<g transform="translate(0.000000,16.000000) scale(0.001563,-0.001563)"
fill="#000000" stroke="none">
<path d="M0 5120 l0 -5120 5120 0 5120 0 0 5120 0 5120 -5120 0 -5120 0 0
-5120z m5115 2555 c53 -9 114 -33 297 -119 42 -20 82 -36 88 -36 9 0 76 -31
455 -215 72 -35 166 -79 210 -99 44 -19 125 -58 179 -86 55 -27 104 -50 109
-50 7 0 155 -72 224 -109 10 -5 41 -20 68 -32 28 -12 114 -53 192 -90 77 -38
144 -69 147 -69 3 0 56 -24 118 -54 169 -81 190 -90 223 -96 86 -15 10 -76
-256 -208 -102 -51 -189 -92 -193 -92 -4 0 -68 -29 -141 -65 -74 -36 -143 -65
-154 -65 -23 0 -37 34 -46 110 -11 93 -73 152 -270 255 -46 24 -110 52 -142
61 -32 9 -108 31 -169 49 -123 37 -299 77 -414 94 -168 25 -527 53 -600 46
-455 -38 -500 -43 -660 -77 -295 -62 -618 -177 -707 -252 -17 -14 -35 -26 -39
-26 -17 -1 -85 -105 -95 -145 -6 -22 -15 -57 -20 -77 -9 -36 -12 -38 -52 -38
-27 0 -62 11 -97 30 -107 57 -183 90 -206 90 -36 0 -44 -51 -44 -273 0 -158
-3 -204 -15 -227 -15 -30 -46 -39 -71 -22 -12 8 -31 198 -41 412 -3 80 -9 156
-12 169 -7 25 -59 59 -168 111 -34 16 -75 42 -92 59 l-30 29 24 26 c13 14 30
26 37 26 7 0 80 34 162 75 82 41 154 75 160 76 6 0 30 10 52 22 23 12 91 46
150 76 305 150 412 201 426 201 7 0 18 4 23 9 11 11 269 141 279 141 7 0 233
109 471 226 83 41 155 74 160 74 9 0 135 58 175 81 36 21 128 63 165 75 39 12
55 12 140 -1z m515 -1076 c166 -25 283 -51 422 -95 59 -19 113 -34 120 -34 10
0 30 -8 118 -48 14 -7 32 -16 40 -20 8 -5 38 -19 65 -32 28 -13 57 -26 65 -30
13 -6 15 -56 18 -344 l2 -336 -1400 0 -1400 0 0 334 0 334 33 12 c17 6 39 16
47 21 18 10 116 57 182 88 26 11 54 21 63 21 8 0 32 6 52 14 115 41 267 78
463 113 200 35 875 37 1110 2z m-2511 -948 c16 -10 51 -96 51 -125 0 -10 8
-44 19 -75 39 -117 61 -198 67 -253 l7 -56 -77 -7 c-104 -10 -250 -2 -270 14
-52 43 36 404 118 486 26 25 60 32 85 16z m-1559 -1124 c100 -34 173 -66 182
-80 4 -7 8 -72 8 -144 0 -125 -1 -133 -19 -133 -11 0 -22 4 -25 8 -8 13 -155
96 -203 115 -123 48 -263 42 -387 -18 -147 -71 -175 -95 -237 -197 -77 -127
-93 -178 -97 -314 -4 -109 -2 -127 21 -193 68 -195 206 -329 396 -385 141 -41
302 -2 479 118 30 20 58 33 63 30 11 -6 12 -264 1 -280 -11 -18 -46 -33 -160
-71 -96 -33 -120 -37 -237 -41 -144 -4 -206 6 -341 55 -104 39 -181 92 -271
186 -58 61 -83 98 -123 182 -66 138 -90 239 -90 380 0 141 23 240 90 380 42
87 65 121 128 187 102 108 197 169 320 207 135 42 121 40 282 37 124 -3 156
-7 220 -29z m5972 -45 c81 -39 139 -102 169 -181 17 -45 22 -78 22 -166 1
-101 -1 -115 -28 -173 -27 -60 -101 -141 -129 -142 -6 -1 16 -14 50 -29 98
-46 189 -143 210 -226 7 -28 9 -25 20 32 18 87 47 141 118 225 48 57 78 81
127 105 91 45 169 63 274 63 223 0 389 -98 481 -285 63 -128 68 -345 11 -469
-23 -50 -102 -154 -142 -188 -31 -27 -142 -78 -204 -94 -117 -30 -292 -14
-391 36 -19 9 -48 24 -64 31 -36 17 -138 134 -167 192 -12 23 -27 62 -34 87
l-11 45 -7 -48 c-10 -70 -42 -124 -121 -203 l-71 -71 -95 -21 c-85 -20 -124
-22 -362 -22 l-268 0 0 771 0 771 273 -4 272 -3 67 -33z m-852 -501 c57 -22
170 -115 170 -140 0 -14 -130 -131 -146 -131 -3 0 -20 11 -37 24 -65 48 -167
63 -187 27 -29 -56 9 -129 78 -152 132 -43 287 -151 316 -221 55 -133 5 -305
-112 -385 -76 -51 -137 -66 -250 -61 -89 4 -103 7 -169 42 -72 37 -163 122
-163 152 0 7 8 18 19 23 10 6 38 27 62 47 77 64 81 64 143 6 58 -55 97 -69
168 -59 48 6 57 14 67 58 13 59 -3 91 -61 126 -75 45 -131 73 -144 73 -23 0
-139 90 -165 130 -15 23 -31 62 -35 87 -10 67 2 166 26 213 25 50 120 126 180
145 67 20 180 19 240 -4z m-4253 -29 c34 -17 71 -42 83 -54 l20 -22 0 42 0 42
114 0 c95 0 115 -3 120 -16 3 -9 6 -229 6 -490 l0 -474 -120 0 -120 0 0 36 c0
29 -3 34 -13 25 -8 -6 -47 -28 -88 -48 -73 -37 -76 -38 -189 -38 -106 0 -121
2 -184 30 -82 36 -167 114 -209 192 -87 162 -89 412 -5 576 29 57 122 152 173
177 107 52 146 61 250 57 89 -3 107 -7 162 -35z m1566 8 c64 -24 115 -76 148
-150 24 -55 24 -58 27 -442 l3 -388 -120 0 -121 0 0 313 c0 171 -3 329 -7 351
-4 25 -19 52 -43 77 -31 33 -43 39 -79 39 -71 0 -121 -38 -159 -120 -14 -29
-17 -85 -20 -347 l-3 -313 -115 0 -114 0 0 308 c0 341 -5 381 -59 440 -26 28
-36 32 -82 32 -50 0 -55 -3 -95 -46 -73 -78 -77 -98 -82 -436 l-4 -298 -114 0
-114 0 2 488 3 487 113 3 112 3 0 -41 0 -41 33 24 c78 59 116 72 217 72 105 0
125 -7 210 -76 l45 -36 17 21 c20 27 121 82 174 95 54 14 163 5 227 -19z m929
-4 c132 -47 218 -140 275 -297 23 -64 26 -90 27 -199 1 -146 -21 -231 -84
-329 -50 -76 -77 -100 -167 -147 -69 -35 -83 -39 -173 -42 -127 -5 -222 24
-297 91 l-23 20 0 -261 0 -262 -120 0 -120 0 0 710 0 710 120 0 120 0 0 -42 0
-42 34 33 c82 79 270 105 408 57z m598 -253 c0 -286 9 -372 45 -450 31 -69 70
-93 148 -93 102 0 150 37 182 141 15 44 18 108 22 357 l5 302 114 0 114 0 0
-333 c0 -295 -2 -339 -19 -398 -47 -166 -175 -265 -354 -277 -71 -4 -80 -3
-102 18 -22 20 -25 21 -45 7 -16 -11 -18 -16 -8 -21 41 -17 -58 11 -112 32
-107 43 -183 137 -209 260 -7 33 -11 177 -11 382 l0 330 115 0 115 0 0 -257z
m3572 219 c19 -21 49 -60 68 -87 41 -60 121 -155 131 -155 4 0 17 17 29 38 12
20 56 83 98 140 l76 102 133 0 c79 0 133 -4 133 -10 0 -11 -49 -80 -202 -283
-65 -86 -118 -162 -118 -169 0 -7 21 -40 46 -73 25 -33 81 -109 125 -170 45
-60 105 -143 135 -184 30 -40 54 -77 54 -82 0 -5 -60 -9 -133 -9 l-133 0 -45
60 c-24 33 -66 89 -94 125 -27 35 -65 85 -84 111 l-33 46 -25 -28 c-13 -16
-44 -58 -68 -94 -24 -36 -69 -96 -100 -134 -30 -38 -55 -73 -55 -78 0 -4 -63
-8 -140 -8 -77 0 -140 2 -140 5 0 12 55 93 95 140 23 28 50 64 61 80 10 17 46
65 79 107 71 92 125 166 131 182 4 11 -17 43 -136 201 -151 203 -180 243 -180
254 0 8 39 11 129 11 l129 0 34 -38z"/>
<path d="M7170 4111 l0 -221 83 1 c122 1 173 25 206 100 27 58 28 159 2 214
-36 78 -99 113 -218 122 l-73 6 0 -222z"/>
<path d="M8265 3764 c-107 -38 -177 -153 -179 -294 -2 -178 94 -306 239 -318
144 -11 226 32 285 152 31 63 32 68 28 173 -3 85 -8 116 -25 148 -30 57 -101
122 -152 140 -53 18 -142 18 -196 -1z"/>
<path d="M7170 3420 l0 -252 123 3 c109 4 128 7 178 32 99 48 145 156 120 279
-16 76 -46 117 -111 153 -51 28 -63 30 -182 33 l-128 4 0 -252z"/>
<path d="M2181 3767 c-81 -26 -161 -159 -169 -281 -5 -89 12 -150 68 -234 56
-84 84 -97 202 -97 l97 0 60 59 c47 47 65 73 81 120 25 74 26 178 3 259 -21
75 -92 158 -151 175 -48 14 -145 14 -191 -1z"/>
<path d="M4661 3768 c-31 -7 -57 -24 -95 -61 -44 -43 -57 -65 -76 -125 -51
-164 5 -355 125 -420 42 -23 188 -23 231 0 41 22 92 82 115 132 86 198 6 434
-163 475 -54 13 -76 13 -137 -1z"/>
</g>
</svg>
