<?xml version="1.0" encoding="UTF-8" standalone="no"?>
<!-- Created with Inkscape (http://www.inkscape.org/) -->

<svg
   xmlns:dc="http://purl.org/dc/elements/1.1/"
   xmlns:cc="http://creativecommons.org/ns#"
   xmlns:rdf="http://www.w3.org/1999/02/22-rdf-syntax-ns#"
   xmlns:svg="http://www.w3.org/2000/svg"
   xmlns="http://www.w3.org/2000/svg"
   xmlns:sodipodi="http://sodipodi.sourceforge.net/DTD/sodipodi-0.dtd"
   xmlns:inkscape="http://www.inkscape.org/namespaces/inkscape"
   width="121.31598mm"
   height="115.20534mm"
   viewBox="0 0 429.85977 408.20789"
   id="svg5238"
   version="1.1"
   inkscape:version="0.91 r"
   sodipodi:docname="ladki.svg">
  <defs
     id="defs5240" />
  <sodipodi:namedview
     id="base"
     pagecolor="#ffffff"
     bordercolor="#666666"
     borderopacity="1.0"
     inkscape:pageopacity="0.0"
     inkscape:pageshadow="2"
     inkscape:zoom="1.4142136"
     inkscape:cx="177.05927"
     inkscape:cy="151.22172"
     inkscape:document-units="px"
     inkscape:current-layer="layer1"
     showgrid="false"
     inkscape:window-width="1366"
     inkscape:window-height="716"
     inkscape:window-x="0"
     inkscape:window-y="0"
     inkscape:window-maximized="1"
     fit-margin-top="0"
     fit-margin-left="0"
     fit-margin-right="0"
     fit-margin-bottom="0" />
  <metadata
     id="metadata5243">
    <rdf:RDF>
      <cc:Work
         rdf:about="">
        <dc:format>image/svg+xml</dc:format>
        <dc:type
           rdf:resource="http://purl.org/dc/dcmitype/StillImage" />
        <dc:title></dc:title>
      </cc:Work>
    </rdf:RDF>
  </metadata>
  <g
     inkscape:label="Layer 1"
     inkscape:groupmode="layer"
     id="layer1"
     transform="translate(-231.76135,-174.64985)">
    <path
       inkscape:connector-curvature="0"
       id="path5978"
       style="fill:#2f2c2c;fill-opacity:1;fill-rule:nonzero;stroke:none"
       d="m 331.56243,316.98692 c 0.052,-0.63852 0.0701,-1.3042 0.0272,-2.01065 0,0 -0.0272,0.75173 -0.0272,2.01065" />
    <path
       inkscape:connector-curvature="0"
       id="path5980"
       style="fill:#df2a2f;fill-opacity:1;fill-rule:nonzero;stroke:none"
       d="m 373.66361,314.97627 -0.0634,0.2468 0.0634,-0.2468" />
    <path
       inkscape:connector-curvature="0"
       id="path5982"
       style="fill:#444244;fill-opacity:1;fill-rule:nonzero;stroke:none"
       d="m 359.04571,268.81755 -0.0386,0.16974 0.0386,-0.16974" />
    <path
       inkscape:connector-curvature="0"
       id="path5984"
       style="fill:#eec498;fill-opacity:1;fill-rule:nonzero;stroke:none"
       d="m 569.85497,532.42776 c 0.0296,-9.4279 14.32382,-13.01324 21.25629,-15.59059 5.4397,-2.03102 8.89305,-3.30967 16.9991,-5.44994 2.21416,-0.58498 7.70532,-1.99998 9.31527,0.44864 2.06669,3.14425 -5.415,5.47309 -7.30367,6.32053 -1.06213,0.47425 -9.94692,3.96041 -5.47622,4.78513 3.69494,0.6766 5.07594,-0.15901 8.64106,-1.14838 5.65782,-1.55875 14.69115,-8.19531 18.93945,-6.08546 4.24813,2.10758 -1.53279,6.29049 -1.53279,6.29049 0,0 0.96432,-0.50803 1.73653,1.62673 0.76736,2.13055 -2.13699,5.31497 -2.19288,5.3894 -0.0535,0.0765 1.13766,-0.12114 0.62539,1.67547 -0.52111,1.79943 -3.02236,4.78208 -3.87291,5.79492 0,0 -0.17745,2.1877 -2.70618,4.47767 -2.52631,2.29209 -22.66008,12.97946 -48.9559,3.04396 -3.79978,-1.43407 -3.7383,-4.68941 -4.93164,-8.31239 -0.37545,-1.13966 -0.54532,-2.23065 -0.5409,-3.26618" />
    <path
       inkscape:connector-curvature="0"
       id="path5986"
       style="fill:#8c5524;fill-opacity:1;fill-rule:nonzero;stroke:none"
       d="m 619.80729,527.47049 c -5.15133,2.28255 -10.6956,3.81035 -16.13391,5.17158 l 0.022,0.0529 c 5.62696,-1.1388 11.08165,-2.55569 16.43443,-4.72116 3.69607,-1.50057 8.78184,-3.84193 11.60464,-6.77297 l -0.1125,-0.11206 c -3.4948,2.55522 -7.87745,4.63677 -11.8146,6.38183" />
    <path
       inkscape:connector-curvature="0"
       id="path5988"
       style="fill:#8c5524;fill-opacity:1;fill-rule:nonzero;stroke:none"
       d="m 618.90091,535.48179 c -4.33228,1.9939 -9.07495,2.58506 -13.52692,4.11771 l 0.0156,0.0442 c 5.05377,-1.31065 9.98916,-2.12463 14.81129,-4.34473 3.59798,-1.66371 8.4443,-3.738 10.77823,-7.21251 l -0.0596,-0.0388 c -2.78548,3.60258 -8.04551,5.60696 -12.01982,7.43415" />
    <path
       inkscape:connector-curvature="0"
       id="path5990"
       style="fill:#8c5524;fill-opacity:1;fill-rule:nonzero;stroke:none"
       d="m 608.7132,544.17026 0.0197,0.0463 c 3.73232,-0.59286 7.5203,-1.67102 10.9916,-3.20297 3.29716,-1.4603 7.46134,-3.76892 9.43261,-6.95382 l -0.0982,-0.0723 c -4.75739,5.83862 -13.30404,8.72817 -20.34513,10.18283" />
    <path
       inkscape:connector-curvature="0"
       id="path5992"
       style="fill:#eec498;fill-opacity:1;fill-rule:nonzero;stroke:none"
       d="M 490.4529,492.85237 479.83363,438.1258 c -0.0338,-6.28099 -0.0566,-49.74981 0.0145,-67.12555 0,0 23.08388,1.41968 27.05081,15.7138 l 14.41639,99.23466 c -2.79859,13.08954 -25.96172,16.69195 -30.86153,6.90366" />
    <path
       inkscape:connector-curvature="0"
       id="path5994"
       style="fill:#eec498;fill-opacity:1;fill-rule:nonzero;stroke:none"
       d="m 494.0903,500.17485 c 4.72738,2.8853 24.48749,14.96683 28.74499,17.54414 11.26771,6.81606 26.69184,14.7843 38.6568,20.28847 12.60237,5.78974 20.84948,9.08844 23.12353,8.57441 l 4.41988,-7.90236 c 3.00321,-5.01617 -12.03459,-6.60332 -68.13932,-54.63989 L 505.7885,496.1215 c -11.3787,-2.66612 -20.5164,-6.55444 -11.6982,4.05335"
       sodipodi:nodetypes="cccccccc" />
    <path
       inkscape:connector-curvature="0"
       id="path5996"
       style="fill:#66b2ef;fill-opacity:1;fill-rule:nonzero;stroke:none"
       d="M 521.66538,437.52351 507.18786,384.64 c -3.96693,-13.20954 -27.34064,-13.63975 -27.34064,-13.63975 -0.0181,5.1602 -3.1586,67.67575 -3.11559,73.17559 l 4.29073,11.00644 c 10.12113,-2.02196 36.58552,-16.10098 40.64302,-17.65877" />
    <path
       inkscape:connector-curvature="0"
       id="path5998"
       style="fill:#eec498;fill-opacity:1;fill-rule:nonzero;stroke:none"
       d="m 340.91825,492.85237 10.61926,-53.13709 c 0.0363,-6.27873 0.0611,-51.33929 -0.0181,-68.71503 0,0 -23.07935,1.41968 -27.05082,15.7138 l -14.41638,99.23466 c 2.80311,13.08954 25.96624,16.69195 30.86605,6.90366" />
    <path
       inkscape:connector-curvature="0"
       id="path6000"
       style="fill:#eec498;fill-opacity:1;fill-rule:nonzero;stroke:none"
       d="m 340.3128,494.02782 c -3.57394,-4.23082 -18.50611,-21.93551 -21.73152,-25.7257 -8.53779,-10.02626 -20.65524,-22.45864 -30.26899,-31.46043 -10.1283,-9.47408 -16.9112,-15.20893 -19.23118,-15.43955 l -6.68975,6.10163 c -4.43392,3.81071 7.09552,11.98559 45.15247,75.28626 l 6.02117,8.96291 c 9.95397,6.12387 31.76205,-4.87353 26.7478,-17.72512"
       inkscape:transform-center-x="4.4194174"
       inkscape:transform-center-y="8.8388207" />
    <g
       id="g10918"
       transform="translate(49,-195.5)">
      <path
         inkscape:connector-curvature="0"
         id="path3821"
         style="fill:#472820;fill-opacity:1;fill-rule:nonzero;stroke:none"
         d="m 188.32861,509.45172 c -3.76427,4.93836 -2.25606,9.11508 3.31954,11.2097 l 4.73325,-0.3295 -3.62346,-22.63098 c 0,0 -0.71274,6.87789 -4.42933,11.75078" />
      <path
         inkscape:connector-curvature="0"
         id="path3823"
         style="fill:#5b3528;fill-opacity:1;fill-rule:nonzero;stroke:none"
         d="m 200.80984,508.58102 c 5.2461,4.30931 5.0943,8.60167 0.30498,11.41994 l -4.73342,0.33096 -3.62346,-22.63098 c 0,0 2.87477,6.62741 8.0519,10.88008" />
      <path
         inkscape:connector-curvature="0"
         id="path3825"
         style="fill:#b51549;fill-opacity:1;fill-rule:evenodd;stroke:none"
         d="m 193.98679,530.58417 c 2.2657,19.60812 7.97077,50.68942 8.37319,57.81454 0.59974,10.57001 6.79724,11.7139 6.79724,11.7139 l -11.17815,-69.80653 -3.99228,0.27809" />
      <path
         inkscape:connector-curvature="0"
         id="path3827"
         style="fill:#dc2357;fill-opacity:1;fill-rule:evenodd;stroke:none"
         d="m 201.97056,530.02713 c 3.99522,19.48801 8.2617,50.66948 10.12373,57.69119 2.76207,10.41994 -2.93707,12.39429 -2.93707,12.39429 l -11.17815,-69.80653 3.99149,-0.27895" />
      <path
         inkscape:connector-curvature="0"
         id="path3829"
         style="fill:#b8b5b7;fill-opacity:1;fill-rule:nonzero;stroke:none"
         d="m 199.39034,538.47628 -2.70075,-16.87106 -5.40828,0.37672 1.70945,16.94016 6.39958,-0.44582" />
      <path
         inkscape:connector-curvature="0"
         id="path3831"
         style="fill:#d0cbcd;fill-opacity:1;fill-rule:nonzero;stroke:none"
         d="m 205.58582,538.04371 -3.69468,-16.80231 -5.20155,0.36382 2.70075,16.87106 6.19548,-0.43257" />
      <path
         inkscape:connector-curvature="0"
         id="path3833"
         style="fill:#d3d5d2;fill-opacity:1;fill-rule:nonzero;stroke:none"
         d="m 206.04186,537.09408 -13.79777,0.96202 c -0.66614,0.0476 -1.10434,0.72167 -0.9781,1.5077 0.12605,0.78748 0.76872,1.38537 1.4337,1.33983 l 13.79885,-0.96334 c 0.66594,-0.0462 1.10239,-0.72046 0.97703,-1.50638 -0.12704,-0.78687 -0.76775,-1.38599 -1.43371,-1.33983" />
      <path
         inkscape:connector-curvature="0"
         id="path3835"
         style="fill:#e5e6e3;fill-opacity:1;fill-rule:nonzero;stroke:none"
         d="m 206.04186,537.09408 -6.79631,0.47371 0.45562,2.84755 6.79737,-0.47505 c 0.66594,-0.0462 1.10239,-0.72046 0.97703,-1.50638 -0.12704,-0.78687 -0.76775,-1.38599 -1.43371,-1.33983" />
      <path
         inkscape:connector-curvature="0"
         id="path3837"
         style="fill:#d3d5d2;fill-opacity:1;fill-rule:nonzero;stroke:none"
         d="m 202.26479,519.7751 -11.8108,0.82437 c -0.667,0.0475 -1.1052,0.72157 -0.97984,1.50748 0.12693,0.7876 0.76862,1.38612 1.43458,1.33995 l 11.81254,-0.82415 c 0.66595,-0.0462 1.1024,-0.72046 0.97731,-1.50855 -0.12634,-0.7853 -0.76706,-1.38442 -1.43379,-1.3391" />
      <path
         inkscape:connector-curvature="0"
         id="path3839"
         style="fill:#e5e6e3;fill-opacity:1;fill-rule:nonzero;stroke:none"
         d="m 202.26479,519.7751 -5.80432,0.40618 0.45658,2.84693 5.80422,-0.40546 c 0.66595,-0.0462 1.1024,-0.72046 0.97731,-1.50855 -0.12634,-0.7853 -0.76706,-1.38442 -1.43379,-1.3391" />
    </g>
    <g
       id="g10910"
       transform="translate(6.1871843,6.1871843)">
      <path
         sodipodi:nodetypes="ccccccccccccccccc"
         inkscape:connector-curvature="0"
         id="path10916"
         style="fill:#eec498;fill-opacity:1;fill-rule:nonzero;stroke:none"
         d="m 269.72561,424.42607 c 1.41266,-13.23306 0.17838,-10.7189 -3.70496,-26.09802 -2.35048,-5.30878 -3.84924,-8.67246 -7.98668,-15.9633 -1.12545,-1.99547 -3.95079,-6.91202 -6.8256,-6.35385 -3.69675,0.72199 -0.13572,7.70243 0.57973,9.64412 0.40304,1.09114 4.12027,9.88104 0.40952,7.25667 -3.06963,-2.16711 -3.43354,-3.74183 -5.22252,-6.9789 -2.83726,-5.13768 -4.40316,-16.23691 -8.87945,-17.80263 -4.47803,-1.56424 -3.43,5.4939 -3.43,5.4939 0,0 -0.30879,-1.04626 -2.37537,-0.10674 -2.06021,0.94007 -2.31346,5.24725 -2.32416,5.33632 -0.0155,0.0902 -0.70503,-0.90124 -1.63547,0.72356 -0.92118,1.62879 -1.30664,5.50228 -1.43844,6.81995 0,0 -1.43904,1.65431 -1.30984,5.06339 0.12776,3.40734 6.54846,25.28172 32.03347,37.14567 3.6812,1.7157 5.9667,-0.60324 9.39727,-2.28594 1.0741,-0.52498 1.97317,-1.16592 2.7125,-1.8942" />
      <path
         d="m 269.72561,424.42607 c 1.41266,-13.23306 0.17838,-10.7189 -3.70496,-26.09802 -2.35048,-5.30878 -3.84924,-8.67246 -7.98668,-15.9633 -1.12545,-1.99547 -3.95079,-6.91202 -6.8256,-6.35385 -3.69675,0.72199 -0.13572,7.70243 0.57973,9.64412 0.40304,1.09114 4.12027,9.88104 0.40952,7.25667 -3.06963,-2.16711 -3.43354,-3.74183 -5.22252,-6.9789 -2.83726,-5.13768 -4.40316,-16.23691 -8.87945,-17.80263 -4.47803,-1.56424 -3.43,5.4939 -3.43,5.4939 0,0 -0.30879,-1.04626 -2.37537,-0.10674 -2.06021,0.94007 -2.31346,5.24725 -2.32416,5.33632 -0.0155,0.0902 -0.70503,-0.90124 -1.63547,0.72356 -0.92118,1.62879 -1.30664,5.50228 -1.43844,6.81995 0,0 -1.43904,1.65431 -1.30984,5.06339 0.12776,3.40734 6.54846,25.28172 32.03347,37.14567 3.6812,1.7157 5.9667,-0.60324 9.39727,-2.28594 1.0741,-0.52498 1.97317,-1.16592 2.7125,-1.8942"
         style="fill:#eec498;fill-opacity:1;fill-rule:nonzero;stroke:none"
         id="path6002"
         inkscape:connector-curvature="0"
         sodipodi:nodetypes="ccccccccccccccccc" />
      <path
         d="m 238.3609,385.23349 c 1.96559,5.28122 4.74735,10.31461 7.57077,15.15869 l -0.0447,0.0141 c -3.12473,-4.81482 -5.92149,-9.70809 -8.11333,-15.05012 -1.51138,-3.6909 -3.38909,-8.96633 -3.26354,-13.03522 l 0.15719,0.004 c 0.61632,4.28398 2.18852,8.87492 3.6935,12.90912"
         style="fill:#8c5524;fill-opacity:1;fill-rule:nonzero;stroke:none"
         id="path6004"
         inkscape:connector-curvature="0" />
      <path
         d="m 233.26403,391.48044 c 1.60485,4.48927 4.4912,8.2991 6.5027,12.55748 l -0.0357,0.0139 c -2.59776,-4.52786 -5.46288,-8.62833 -7.24481,-13.62897 -1.32613,-3.73477 -3.22925,-8.65083 -2.3716,-12.75129 l 0.0658,0.0185 c -0.63197,4.51148 1.61373,9.67167 3.0842,13.79134"
         style="fill:#8c5524;fill-opacity:1;fill-rule:nonzero;stroke:none"
         id="path6006"
         inkscape:connector-curvature="0" />
      <path
         d="m 234.16898,404.83932 -0.0521,0.0227 c -2.18079,-3.08687 -4.05681,-6.5498 -5.3852,-10.10478 -1.26141,-3.37745 -2.51848,-7.9708 -1.61801,-11.60653 l 0.12376,0.0168 c -0.85499,7.48602 3.05093,15.61859 6.93104,21.6715"
         style="fill:#8c5524;fill-opacity:1;fill-rule:nonzero;stroke:none"
         id="path6008"
         inkscape:connector-curvature="0" />
    </g>
    <path
       inkscape:connector-curvature="0"
       id="path6010"
       style="fill:#b2d8f7;fill-opacity:1;fill-rule:nonzero;stroke:none"
       d="m 472.6945,492.30895 c 0,0 9.4645,-110.67132 8.10371,-121.3087 l -64.6598,-14.94395 -64.66203,14.94395 c -1.35402,10.63738 8.47277,121.3087 8.47277,121.3087 0,4.3994 -11.35288,48.24406 -8.38447,54.2941 l 0.052,0.11545 0.0704,0.11325 0.18567,0.22869 0.15179,0.13132 c 3.81524,3.2673 28.59957,5.82135 59.13051,5.98212 l 0,0.007 c 0.24906,0 3.93977,10e-4 4.98359,10e-4 1.04609,0 4.73906,-10e-4 4.9836,-10e-4 l 0,-0.007 c 30.53321,-0.16067 55.31979,-2.71482 59.13729,-5.98212 l 0.14492,-0.13132 0.18567,-0.22869 0.0724,-0.11325 0.0543,-0.11545 c 2.96388,-6.05004 -8.02219,-49.8947 -8.02219,-54.2941" />
    <path
       inkscape:connector-curvature="0"
       id="path6012"
       style="fill:#66b2ef;fill-opacity:1;fill-rule:nonzero;stroke:none"
       d="M 311.10507,437.52351 325.58259,384.64 c 3.96693,-13.20954 27.33838,-13.63975 27.33838,-13.63975 0.0145,5.1602 3.15633,67.67575 3.11785,73.17559 l -4.28847,11.00644 c -10.13019,-2.02196 -36.59004,-16.10098 -40.64528,-17.65877" />
    <path
       inkscape:connector-curvature="0"
       id="path6014"
       style="fill:#eec498;fill-opacity:1;fill-rule:nonzero;stroke:none"
       d="m 432.95491,369.63265 c 0,3.50278 -8.38672,19.94792 -16.77121,19.94792 -8.38674,0 -16.77346,-16.44514 -16.77346,-19.94792 l 0,-31.29852 c 0,-7.00329 5.67191,-12.67972 12.67746,-12.67972 l 8.18523,0 c 7.00554,0 12.68198,5.67643 12.68198,12.67972 l 0,31.29852" />
    <path
       inkscape:connector-curvature="0"
       id="path6016"
       style="fill:#f9ee3c;fill-opacity:1;fill-rule:nonzero;stroke:none"
       d="m 414.8161,404.78944 11.95519,24.22054 26.73155,3.8877 -19.34336,18.85202 4.56923,26.62287 -23.91261,-12.56877 -23.91032,12.56877 4.57148,-26.62287 -19.34335,-18.85202 26.72929,-3.8877 11.9529,-24.22054" />
    <path
       inkscape:connector-curvature="0"
       id="path6018"
       style="fill:#fae186;fill-opacity:1;fill-rule:nonzero;stroke:none"
       d="m 472.6945,492.30895 0,0 c 0,0 0,-10e-4 0,-0.004 0,10e-4 0,0.004 0,0.004 m -112.74535,0 0,0 0,0 0,0 m 0,-10e-4 0,0 0,0 m 0,-0.001 -10e-4,-10e-4 10e-4,10e-4 m 112.74535,-10e-4 c 0,0 0,0 0,-10e-4 0,10e-4 0,10e-4 0,10e-4 m -112.74762,-0.004 0,-10e-4 0,10e-4 m 112.74762,-0.004 c 0,0 10e-4,-0.001 10e-4,-0.004 0,10e-4 -10e-4,0.004 -10e-4,0.004 m -112.74762,-0.001 c 0,-10e-4 0,-0.004 0,-0.01 0,0.004 0,0.007 0,0.01 m 112.74988,-0.004 c 0,-0.011 0.001,-0.0317 0.004,-0.0543 -10e-4,0.0226 -0.004,0.043 -0.004,0.0543 m -112.74988,-0.004 c 0,-0.004 -0.001,-0.007 -0.001,-0.011 0,0.004 0.001,0.007 0.001,0.011 m -0.001,-0.0145 c 0,-10e-4 0,-0.007 0,-0.011 0,0.004 0,0.01 0,0.011 m -10e-4,-0.0317 c -0.001,-0.011 -0.001,-0.0226 -0.001,-0.0363 0,0.0145 0,0.025 0.001,0.0363 m 112.75893,-0.01 c 0.0952,-1.12533 1.16609,-13.68504 2.50425,-30.35435 -1.33816,16.66931 -2.40914,29.22902 -2.50425,30.35435 m -112.76346,-0.0341 c 0,-0.011 -0.001,-0.0226 -0.001,-0.0363 0,0.0124 0.001,0.0248 0.001,0.0363 m -0.004,-0.061 c 0,-0.001 0,-0.007 -10e-4,-0.011 10e-4,0.004 10e-4,0.01 10e-4,0.011 m -0.011,-0.1178 c -0.19245,-2.18499 -1.43553,-16.26626 -2.91634,-34.13561 1.48081,17.86709 2.72389,31.95062 2.91634,34.13561" />
    <path
       inkscape:connector-curvature="0"
       id="path6020"
       style="fill:#66b2ef;fill-opacity:1;fill-rule:nonzero;stroke:none"
       d="m 416.13841,553.18292 c -1.04381,0 -4.73451,-10e-4 -4.98358,-10e-4 l 0,-0.007 c -12.03215,-0.0634 -23.17219,-0.49813 -32.48725,-1.2023 -10.99966,-0.83098 -19.45431,-2.03781 -23.83334,-3.44843 -1.32231,-0.42568 -2.2733,-0.87174 -2.80991,-1.33137 l -0.15179,-0.13132 -0.18567,-0.22868 -0.0704,-0.11325 -0.052,-0.11559 c -0.34189,-0.69739 -0.4936,-1.89743 -0.49586,-3.48013 -0.007,-12.15215 8.88032,-46.92175 8.88032,-50.81397 l 0,0 0,0 0,-0.001 0,0 0,-10e-4 -0.001,-0.001 c 0,-10e-4 0,-10e-4 0,-0.004 l 0,-0.001 c 0,-10e-4 0,-10e-4 0,-0.004 0,-0.001 0,-0.004 0,-0.01 l 0,0 c 0,-0.004 -10e-4,-0.007 -10e-4,-0.011 0,0 0,0 0,-0.001 0,-10e-4 0,-0.007 0,-0.011 -0.001,-0.007 -0.001,-0.0124 -0.001,-0.0203 -10e-4,-0.011 -10e-4,-0.0226 -10e-4,-0.0363 -10e-4,-10e-4 -10e-4,-0.004 -10e-4,-0.007 0,-0.011 -0.001,-0.0226 -0.001,-0.0363 -10e-4,-0.007 -10e-4,-0.0163 -10e-4,-0.025 0,-10e-4 0,-0.007 -0.001,-0.011 -10e-4,-0.0317 -0.006,-0.0679 -0.01,-0.10649 -0.19245,-2.18499 -1.43553,-16.26854 -2.91633,-34.13562 -0.35323,-4.27941 -0.7223,-8.77392 -1.09364,-13.37484 l 0.12677,-0.32831 c 0.006,-0.47097 -0.0163,-1.36081 -0.0565,-2.59708 l 29.05918,0 10.43587,10.17095 -4.5715,26.62287 23.91033,-12.56877 23.91261,12.56877 -4.56923,-26.62287 10.43587,-10.17095 32.20648,0 c -0.54341,7.08706 -1.0891,13.98619 -1.59628,20.29434 -1.33816,16.66929 -2.40916,29.22902 -2.50426,30.35433 0,0 0,10e-4 0,0.004 -0.001,0.0226 -0.004,0.043 -0.004,0.0543 0,10e-4 0,10e-4 0,10e-4 0,0.001 -10e-4,0.004 -10e-4,0.004 0,10e-4 0,0.004 0,0.007 0,10e-4 0,10e-4 0,10e-4 0,0.001 0,0.001 0,0.001 0,10e-4 0,0.004 0,0.004 l 0,0 c 0,3.87411 8.52485,38.35615 8.52938,50.65322 0,1.66195 -0.15397,2.9186 -0.5072,3.64088 l -0.0543,0.11559 -0.0724,0.11325 -0.18566,0.22868 -0.14491,0.13132 0,0 c -2.1714,1.85894 -11.13098,3.48691 -24.07562,4.57376 -9.8064,0.82418 -21.89968,1.33816 -35.06167,1.40834 l 0,0.007 c -0.24455,0 -3.93751,0.001 -4.98361,0.001" />
    <path
       inkscape:connector-curvature="0"
       id="path6022"
       style="fill:#f49211;fill-opacity:1;fill-rule:nonzero;stroke:none"
       d="m 355.91201,444.50415 c -0.0793,-0.97137 -0.15631,-1.94725 -0.23548,-2.9254 l 0.30568,0 c 0.0407,1.23628 0.0612,2.12612 0.0566,2.59709 l -0.12676,0.32831" />
    <path
       inkscape:connector-curvature="0"
       id="path6024"
       style="fill:#f9ee3c;fill-opacity:1;fill-rule:nonzero;stroke:none"
       d="m 438.72871,478.37257 -23.91261,-12.56877 -23.91032,12.56877 4.57148,-26.62287 -10.43585,-10.17095 59.55393,0 -10.43586,10.17095 4.56923,26.62287" />
    <path
       inkscape:connector-curvature="0"
       id="path6026"
       style="fill:#dd7e18;fill-opacity:1;fill-rule:nonzero;stroke:none"
       d="m 515.42141,245.91246 c 0,0 25.39113,-0.72456 39.76903,29.70451 14.37336,30.42001 7.66444,71.62683 6.94668,81.68909 -0.72003,10.05773 7.42668,27.30668 22.0378,22.27781 0,0 -7.4267,17.73124 -24.91112,3.83335 0,0 2.3933,4.79339 5.9889,7.18669 0,0 -10.30454,2.87331 -18.20898,-9.09996 0,0 1.19552,5.26434 4.79113,8.37993 0,0 -22.52462,6.70893 -37.85123,-18.92674 -15.33114,-25.63115 -0.23774,-52.46233 -15.81342,-57.97122 -15.56888,-5.51342 -19.3977,-73.31143 17.25121,-67.07346" />
    <path
       inkscape:connector-curvature="0"
       id="path6028"
       style="fill:#eebe6b;fill-opacity:1;fill-rule:nonzero;stroke:none"
       d="m 297.36794,399.6066 0.33285,-0.3102 c 0.001,0 0.007,0 0.01,10e-4 -0.11091,0.10415 -0.22416,0.20832 -0.3419,0.30794" />
    <path
       inkscape:connector-curvature="0"
       id="path6030"
       style="fill:#d25a1e;fill-opacity:1;fill-rule:nonzero;stroke:none"
       d="m 545.06478,390.67637 c 4.10959,0 6.77007,-0.79249 6.77007,-0.79249 l 0,0 c -0.1178,-0.0996 -0.23095,-0.20378 -0.3419,-0.30793 -2.35028,0.59322 -4.66659,0.88984 -6.9195,0.88984 -8.13087,0 -15.41039,-3.86958 -20.17888,-11.64496 -6.62515,-10.79362 -6.17457,-24.96772 -3.43936,-36.88893 1.40834,-6.12702 4.22958,-11.74005 7.69386,-16.94554 4.39035,-6.60704 9.57773,-12.30838 12.92426,-19.60828 6.56401,-14.3077 7.1414,-30.04413 3.48466,-45.04471 -3.2356,-3.49371 -6.58893,-6.14287 -9.82452,-8.15124 0.28756,3.21747 0.40983,6.5074 0.35323,9.85621 -0.5638,33.08729 -11.53629,52.92652 -29.6479,64.4311 0.71549,9.78149 -1.01439,23.39181 4.48545,37.26932 0.95323,2.40462 2.12385,4.81828 3.55937,7.21838 3.81071,6.37382 8.06521,10.74833 12.30838,13.72352 6.96253,4.8817 13.89109,5.99571 18.77278,5.99571" />
    <path
       inkscape:connector-curvature="0"
       id="path6032"
       style="fill:#d25a1e;fill-opacity:1;fill-rule:nonzero;stroke:none"
       d="m 346.0626,326.30197 c -7.54445,-10.26829 -13.26844,-25.12621 -13.26844,-46.57758 0,-4.63036 0.2672,-9.57094 0.84231,-14.83755 0,0 0.19698,10e-4 0.57512,10e-4 2.11931,0 9.92187,-0.0679 20.84454,-0.96909 5.0968,7.06894 7.26367,17.49803 7.2614,27.63727 0,14.68358 -4.53978,28.76259 -11.28494,31.15136 -2.22121,0.78569 -3.8175,2.00611 -4.96999,3.59335" />
    <path
       inkscape:connector-curvature="0"
       id="path6034"
       style="fill:#f19611;fill-opacity:1;fill-rule:nonzero;stroke:none"
       d="m 468.41057,190.17613 c 0,0 -17.63612,-20.6136 -65.14434,-14.33714 -47.51498,6.27193 -90.54224,43.32614 -89.65014,95.92207 0.89438,52.4782 27.97917,71.6359 68.18293,77.05421 -3.98279,-0.60229 -56.20739,-10.05093 -48.16255,-83.92843 0,0 80.38489,0.89664 119.83241,-33.46992 0,0 21.21362,37.05194 43.62503,46.31947 0,0 2.69443,57.37573 -40.03849,71.71739 0,0 36.15079,1.79328 50.49699,-37.94857 14.34619,-39.74415 8.06747,-108.18067 -39.14184,-121.32908" />
    <path
       inkscape:connector-curvature="0"
       id="path6036"
       style="fill:#f7cb67;fill-opacity:1;fill-rule:nonzero;stroke:none"
       d="m 381.79902,348.81527 c -0.1178,-0.0163 -0.23321,-0.0317 -0.35096,-0.0476 0.1178,0.0163 0.23322,0.0317 0.35096,0.0476 l 0,0 m -0.36001,-0.0498 c -0.0386,-0.004 -0.0701,-0.01 -0.10649,-0.0124 0.0363,0.004 0.0704,0.01 0.10649,0.0124 m -0.12221,-0.0163 c -0.0339,-0.004 -0.068,-0.01 -0.10415,-0.0124 0.0341,0.004 0.0704,0.01 0.10415,0.0124 m -0.11091,-0.0163 c -0.0317,-0.004 -0.0704,-0.01 -0.10414,-0.0124 0.0339,0.004 0.0701,0.01 0.10414,0.0124 m -0.12897,-0.0181 c -0.0341,-0.004 -0.0612,-0.01 -0.095,-0.0124 0.0317,0.004 0.0634,0.01 0.095,0.0124 m -0.11104,-0.0124 c -0.0295,-0.004 -0.0611,-0.01 -0.0927,-0.0124 0.0295,0.004 0.0634,0.01 0.0927,0.0124 m -0.12898,-0.0204 c -0.0272,-10e-4 -0.052,-0.007 -0.0815,-0.011 0.0272,0.004 0.0543,0.01 0.0815,0.011 m -0.11325,-0.0163 c -0.0272,-10e-4 -0.0498,-0.007 -0.077,-0.01 0.0272,0.001 0.0521,0.007 0.077,0.01 m -0.1247,-0.0163 c -0.0226,-0.004 -0.0407,-0.007 -0.0655,-0.011 0.0204,0.004 0.0453,0.007 0.0655,0.011 m -0.11325,-0.0181 c -0.0204,-10e-4 -0.0429,-0.004 -0.0634,-0.007 0.0226,10e-4 0.0407,0.004 0.0634,0.007 m -0.11987,-0.0163 c -0.0204,-0.004 -0.0408,-0.007 -0.0612,-0.01 0.0204,0.001 0.0408,0.004 0.0612,0.01 m -0.10869,-0.0163 c -0.0203,-0.004 -0.0407,-0.007 -0.0611,-0.01 0.0226,0.001 0.0386,0.004 0.0611,0.01 m -0.12442,-0.0181 c -0.0145,-0.001 -0.025,-0.004 -0.0386,-0.007 0.011,10e-4 0.0272,0.004 0.0386,0.007 m -0.1156,-0.0181 c -0.01,0 -0.0181,-0.001 -0.0272,-0.004 0.01,10e-4 0.0181,0.004 0.0272,0.004 m -0.22869,-0.0317 c -0.001,-0.001 -0.004,-0.001 -0.007,-0.001 10e-4,0 0.004,0 0.007,0.001" />
    <path
       inkscape:connector-curvature="0"
       id="path6038"
       style="fill:#ec7317;fill-opacity:1;fill-rule:nonzero;stroke:none"
       d="m 457.76413,349.46737 c -0.4619,0 -0.70871,-0.0124 -0.70871,-0.0124 37.97351,-12.74537 40.07471,-59.47467 40.07245,-69.72259 0,-1.28383 -0.0341,-1.9948 -0.0341,-1.9948 -22.4114,-9.26754 -43.62502,-46.31949 -43.62502,-46.31949 -37.49576,32.66388 -111.97551,33.47221 -119.25731,33.47221 -0.37812,0 -0.57511,-0.001 -0.57511,-0.001 -0.57511,5.26662 -0.84229,10.2072 -0.84229,14.83756 -10e-4,60.34187 45.30509,68.52935 49.00484,69.09088 -0.1178,-0.0163 -0.23321,-0.0317 -0.35095,-0.0476 -10e-4,0 -0.007,-0.001 -0.01,-0.001 -0.0363,-0.004 -0.0701,-0.01 -0.10649,-0.0124 -0.004,-10e-4 -0.011,-10e-4 -0.0163,-10e-4 -0.0339,-0.004 -0.0701,-0.01 -0.10414,-0.0124 -0.001,-10e-4 -0.004,-10e-4 -0.007,-10e-4 -0.0341,-0.004 -0.0704,-0.01 -0.10415,-0.0124 -0.01,-10e-4 -0.0163,-10e-4 -0.0248,-0.004 -0.0317,-0.004 -0.0634,-0.01 -0.095,-0.0124 -0.006,0 -0.011,0 -0.0163,0 -0.0295,-0.004 -0.0635,-0.01 -0.0927,-0.0124 -0.011,-0.001 -0.0248,-0.004 -0.0363,-0.007 -0.0272,-10e-4 -0.0543,-0.007 -0.0815,-0.011 -0.01,0 -0.0204,-10e-4 -0.0317,-0.004 -0.0248,-0.001 -0.0498,-0.007 -0.077,-0.01 -0.0124,-0.004 -0.0339,-0.007 -0.0476,-0.007 -0.0204,-0.004 -0.0452,-0.007 -0.0655,-0.011 -0.0163,-10e-4 -0.0317,-0.004 -0.0476,-0.007 -0.0226,-10e-4 -0.0407,-0.004 -0.0634,-0.007 -0.0181,-0.004 -0.0386,-0.007 -0.0566,-0.01 -0.0204,-0.004 -0.0407,-0.007 -0.0612,-0.01 -0.0124,-0.001 -0.0338,-0.004 -0.0476,-0.007 -0.0226,-0.004 -0.0383,-0.007 -0.0611,-0.01 -0.0204,-0.001 -0.043,-0.007 -0.0635,-0.01 -0.011,-0.001 -0.0272,-0.004 -0.0386,-0.007 -0.025,-0.001 -0.0498,-0.007 -0.077,-0.011 -0.01,0 -0.0181,-10e-4 -0.0272,-0.004 -0.068,-0.01 -0.13587,-0.0181 -0.20152,-0.0272 -0.001,-10e-4 -0.004,-10e-4 -0.007,-10e-4 -37.29876,-5.52247 -62.84159,-23.44842 -65.86435,-69.906 1.39703,1.46948 2.93219,2.4748 4.50358,2.4748 1.47627,0 2.98199,-0.88757 4.4311,-3.11332 3.28767,-5.04021 2.80312,-11.50233 5.66285,-16.70101 0.8989,-1.64158 2.34122,-2.18273 4.60319,-2.18273 2.19178,0 5.15793,0.50945 9.14751,1.01891 3.98959,0.50718 9.00261,1.01663 15.29717,1.01663 10.694,0 25.08321,-1.46947 44.40845,-6.91044 20.53664,-5.77833 41.43553,-13.94769 52.11366,-35.67982 2.07178,24.22506 18.06408,37.24667 23.3873,42.25517 3.95788,3.71786 12.80651,11.25324 17.85349,11.25324 0.95551,0 1.77743,-0.27171 2.40235,-0.88984 0.6204,-0.61587 1.18193,-0.89211 1.69139,-0.89211 3.40088,0 4.4062,12.32425 4.49903,17.92143 0.0543,3.24239 1.57818,7.37009 5.32322,7.37009 0.23321,0 0.47549,-0.0163 0.72456,-0.0498 0.80154,-0.10193 1.49893,-0.44832 2.11479,-0.93738 -1.12758,6.00927 -2.64914,11.71515 -4.52847,16.92742 l 0,0 c -13.15747,36.45418 -44.66204,37.96216 -49.78826,37.96216" />
    <path
       inkscape:connector-curvature="0"
       id="path6040"
       style="fill:#efc59a;fill-opacity:1;fill-rule:nonzero;stroke:none"
       d="m 501.29179,305.5095 c -4.9881,-1.83403 -11.91893,0.6838 -13.49711,5.60172 -0.87625,-1.3993 -3.12011,-1.76383 -4.3043,-0.48907 -5.59266,6.0206 -2.15782,15.6436 4.90885,18.78409 5.81683,2.5835 15.227,-1.22268 18.84977,-5.91418 4.71866,-6.11796 0.58191,-15.58473 -5.95721,-17.98256" />
    <path
       inkscape:connector-curvature="0"
       id="path6042"
       style="fill:#efc59a;fill-opacity:1;fill-rule:nonzero;stroke:none"
       d="m 342.87228,302.5592 c -0.24906,-1.58496 -0.95323,-3.00916 -1.94271,-4.23864 -0.19019,-0.55474 -0.45738,-1.65969 -0.50039,-1.80233 -0.40531,-1.40157 -1.63252,-2.49293 -2.53821,-3.56165 -2.24613,-2.61972 -6.17005,-2.73067 -9.30148,-2.90727 -7.20254,-0.39399 -9.71358,7.42669 -8.42522,13.12803 0.72681,3.2288 2.35934,6.64101 4.81376,8.88939 2.20537,2.0197 5.57002,5.01981 8.73316,5.14208 7.92708,0.30341 10.16642,-8.33013 9.16109,-14.64961" />
    <path
       inkscape:connector-curvature="0"
       id="path6044"
       style="fill:#f4d6b7;fill-opacity:1;fill-rule:nonzero;stroke:none"
       d="m 497.09391,277.73639 c -22.41141,-9.26753 -43.62503,-46.32174 -43.62503,-46.32174 -39.44752,34.36883 -119.83241,33.47219 -119.83241,33.47219 -8.04484,73.8775 43.00235,88.94598 46.98741,89.55053 0.0837,0.0181 32.38309,17.78331 76.43154,-4.98359 42.73292,-14.34166 40.03849,-71.71739 40.03849,-71.71739" />
    <path
       inkscape:connector-curvature="0"
       id="path6046"
       style="fill:#ad581e;fill-opacity:1;fill-rule:nonzero;stroke:none"
       d="m 449.79856,268.82661 c -3.34428,-1.60081 -6.63422,-0.84003 -9.30149,1.60988 -0.97362,0.88531 0.27624,2.54726 1.39704,1.83176 l 0.26265,-0.16303 0.18793,-0.17426 c 4.61904,-3.70882 9.32412,-0.0566 12.6933,3.52544 0.21963,0.24 0.58418,-10e-4 0.51852,-0.28983 -0.66116,-2.90728 -3.13597,-5.08775 -5.75795,-6.33987" />
    <path
       inkscape:connector-curvature="0"
       id="path6048"
       style="fill:#ad581e;fill-opacity:1;fill-rule:nonzero;stroke:none"
       d="m 387.04525,270.55648 c -2.01291,-2.52461 -5.32095,-3.4688 -8.4003,-2.17819 -3.50052,1.45591 -5.56324,4.26809 -6.45535,7.80937 -0.0521,0.22868 0.23549,0.3351 0.36681,0.15632 2.862,-3.91715 8.32786,-9.39206 12.85633,-4.1798 0.9872,1.13892 2.54726,-0.47548 1.63251,-1.6076" />
    <path
       inkscape:connector-curvature="0"
       id="path6050"
       style="fill:#c08b58;fill-opacity:1;fill-rule:nonzero;stroke:none"
       d="m 417.54452,314.18833 c -1.35177,0.64303 -2.47935,1.09135 -4.00092,0.83322 -1.94725,-0.33509 -3.20616,-1.45136 -2.8937,-3.54578 0.20378,-1.39703 1.29742,-2.68765 2.41142,-3.44617 1.16382,-0.79702 2.53368,-0.73134 3.82429,-1.1208 0.27625,-0.0861 0.2921,-0.48907 0.004,-0.57058 -4.15714,-1.21136 -8.45466,2.52009 -8.09239,6.75195 0.39171,4.58281 7.06443,4.9949 9.85851,2.55632 0.83776,-0.73136 -0.21058,-1.88837 -1.11175,-1.45816" />
    <path
       inkscape:connector-curvature="0"
       id="path6052"
       style="fill:#ffffff;fill-opacity:1;fill-rule:nonzero;stroke:none"
       d="m 447.61809,319.52965 c -0.16972,0.30568 -0.31246,0.63173 -0.46869,0.94419 -0.38945,-0.42114 -1.13212,-0.52757 -1.52156,0.1018 -0.71098,1.16156 -2.48613,1.9495 -3.62051,2.59707 -1.93819,1.10495 -3.74279,2.38877 -5.82136,3.23787 -2.71028,1.10041 -5.42736,2.54952 -8.00408,3.93523 -6.40325,3.4439 -13.46316,3.43485 -20.43021,4.11865 -0.81059,0.0837 -2.52915,0.5253 -1.5759,0.94193 5.46586,2.40008 11.52045,4.13448 17.48218,4.54204 5.52699,0.36908 11.44798,-0.37133 15.88134,-3.96693 3.77449,-3.05219 5.7172,-6.9263 7.38821,-11.36421 0.60228,-1.60307 1.234,-3.17445 1.38345,-4.89753 0.0363,-0.37133 -0.52078,-0.50493 -0.69287,-0.1902" />
    <path
       inkscape:connector-curvature="0"
       id="path6054"
       style="fill:#c08b58;fill-opacity:1;fill-rule:nonzero;stroke:none"
       d="m 447.67697,319.26926 c -9.19733,4.56924 -18.13427,10.05095 -28.18294,12.55066 -5.74665,1.43326 -11.10382,2.02422 -17.03387,1.63025 -5.95266,-0.39851 -11.5408,-2.60387 -16.71232,-5.41153 -0.25585,-0.1382 -0.47548,0.23096 -0.23321,0.39173 4.89754,3.36918 9.72941,5.69681 15.68888,6.57759 5.59041,0.82419 11.27363,0.53437 16.74857,-0.81059 5.73984,-1.42194 11.05173,-3.34201 16.37268,-5.92551 4.82735,-2.34801 9.88793,-4.65073 13.98166,-8.18068 0.4687,-0.4053 -0.12677,-1.07551 -0.62945,-0.82192" />
    <path
       inkscape:connector-curvature="0"
       id="path6056"
       style="fill:#c08b58;fill-opacity:1;fill-rule:nonzero;stroke:none"
       d="m 502.77261,313.94831 c -1.26118,-2.35707 -4.80245,-1.37212 -6.69988,-0.45058 -2.76915,1.34269 -3.95335,4.00543 -4.75262,6.78364 -0.0906,0.34416 0.37812,0.53437 0.557,0.24228 1.13212,-1.84083 2.24611,-3.62278 4.06203,-4.86358 1.0325,-0.69511 2.24386,-1.06192 3.4756,-1.16834 0.9691,-0.077 1.79781,0.45512 2.75558,0.4936 0.54115,0.0226 0.84003,-0.59323 0.60229,-1.03702" />
    <path
       inkscape:connector-curvature="0"
       id="path6058"
       style="fill:#c08b58;fill-opacity:1;fill-rule:nonzero;stroke:none"
       d="m 331.66885,298.44509 c -1.93819,-1.51704 -4.95415,-2.07631 -7.01913,-0.52304 -0.69738,0.52304 -0.33737,1.91101 0.64078,1.54421 1.791,-0.66568 3.30352,-0.76984 5.07641,0.095 1.79328,0.86041 2.74652,3.59108 3.24691,5.33001 0.0748,0.2536 0.45512,0.19925 0.45512,-0.061 0.0498,-2.20989 -0.54795,-4.9383 -2.40009,-6.38514" />
    <path
       inkscape:connector-curvature="0"
       id="path6060"
       style="fill:#341914;fill-opacity:1;fill-rule:nonzero;stroke:none"
       d="m 453.42359,292.63507 c -0.0881,4.64168 -1.80685,8.36408 -3.83787,8.33011 -2.03102,-0.0407 -3.6024,-3.82655 -3.51863,-8.46144 0.0906,-4.63716 1.80687,-8.36635 3.84015,-8.33013 2.02649,0.0386 3.5956,3.82657 3.51635,8.46146" />
    <path
       inkscape:connector-curvature="0"
       id="path6062"
       style="fill:#ffffff;fill-opacity:1;fill-rule:nonzero;stroke:none"
       d="m 449.28004,289.04625 c -0.14038,1.39703 -0.75172,2.47708 -1.36533,2.41368 -0.60908,-0.0566 -0.99174,-1.24307 -0.84908,-2.6401 0.14038,-1.39703 0.75172,-2.48386 1.3608,-2.4182 0.61813,0.0634 0.99626,1.24758 0.85361,2.64462" />
    <path
       inkscape:connector-curvature="0"
       id="path6064"
       style="fill:#341914;fill-opacity:1;fill-rule:nonzero;stroke:none"
       d="m 386.92977,293.38227 c -0.0837,4.63941 -1.80459,8.36182 -3.82655,8.32784 -2.03328,-0.043 -3.61146,-3.82881 -3.51862,-8.46144 0.0837,-4.63716 1.80232,-8.35956 3.83334,-8.32786 2.0265,0.0383 3.60014,3.82882 3.51183,8.46146" />
    <path
       inkscape:connector-curvature="0"
       id="path6066"
       style="fill:#ffffff;fill-opacity:1;fill-rule:nonzero;stroke:none"
       d="m 382.79076,289.79344 c -0.13804,1.39703 -0.75174,2.48161 -1.35855,2.41821 -0.6136,-0.0655 -0.994,-1.24985 -0.85362,-2.64915 0.14274,-1.39251 0.754,-2.47708 1.36308,-2.41368 0.61587,0.0612 0.99399,1.24533 0.84909,2.64462" />
    <path
       inkscape:connector-curvature="0"
       id="path6068"
       style="fill:#f9c2bc;fill-opacity:1;fill-rule:nonzero;stroke:none"
       d="m 378.9393,313.90302 c -0.49135,2.62653 -6.00703,3.80392 -12.31745,2.63105 -6.31495,-1.17062 -11.03815,-4.24771 -10.54455,-6.87648 0.48455,-2.62198 5.99343,-3.80165 12.30838,-2.63331 6.31722,1.17514 11.0359,4.25223 10.55362,6.87874" />
    <path
       inkscape:connector-curvature="0"
       id="path6070"
       style="fill:#f9c2bc;fill-opacity:1;fill-rule:nonzero;stroke:none"
       d="m 470.33064,307.59487 c 0.41436,2.64236 -4.39035,5.59039 -10.73248,6.59346 -6.34212,1.00304 -11.82157,-0.32605 -12.24046,-2.96389 -0.41662,-2.64011 4.38583,-5.59041 10.73248,-6.58893 6.33987,-1.00532 11.82384,0.32379 12.24046,2.95936" />
    <path
       d="m 608.16697,580.07485 c -15.23108,4.82152 -46.35762,4.85813 -50.22282,-12.04828 -3.8621,-16.90471 13.8247,-19.95786 11.51282,-26.15185 -0.25354,-0.67687 -0.61367,-1.2073 -1.05969,-1.62704 l 8.19299,-4.22044 c 2.80965,2.57126 8.59555,3.2626 14.21484,1.444 6.69348,-2.16599 10.61043,-7.07095 8.75285,-10.95678 -0.297,-0.62493 -0.72543,-1.18345 -1.26149,-1.67301 l 40.63588,-20.94038 c 14.46838,4.9041 24.19814,14.76852 22.4958,30.10068 -2.3719,21.39247 -32.40149,39.47043 -53.26118,46.0731 z m -39.76969,-39.82717 c -3.63547,-3.40394 -12.91818,0.67687 -15.31802,-6.15568 -2.69684,-7.67459 14.15794,-28.07945 45.99025,-32.77496 14.0472,-2.06977 28.4359,-1.29159 39.86284,2.58403 l -40.63588,20.94038 c -2.81068,-2.57125 -8.59969,-3.26175 -14.21795,-1.44399 -6.69244,2.16428 -10.61043,7.0735 -8.75285,10.95933 0.29803,0.62067 0.72647,1.17919 1.2646,1.67045 l -8.19299,4.22044"
       style="fill:#e9e3df;fill-opacity:1;fill-rule:evenodd;stroke:none"
       id="path3923"
       inkscape:connector-curvature="0" />
    <path
       d="m 599.82703,567.44421 c 0,5.79383 -5.7083,10.48934 -12.74949,10.48934 -7.04015,0 -12.74844,-4.69551 -12.74844,-10.48934 0,-5.79299 5.70829,-10.4885 12.74844,-10.4885 7.04119,0 12.74949,4.69551 12.74949,10.4885"
       style="fill:#dc2357;fill-opacity:1;fill-rule:nonzero;stroke:none"
       id="path3927"
       inkscape:connector-curvature="0" />
    <path
       d="m 632.25646,556.1009 c 0,5.79297 -5.70829,10.48934 -12.74949,10.48934 -7.04015,0 -12.74845,-4.69637 -12.74845,-10.48934 0,-5.79298 5.7083,-10.48935 12.74845,-10.48935 7.0412,0 12.74949,4.69637 12.74949,10.48935"
       style="fill:#fabb36;fill-opacity:1;fill-rule:nonzero;stroke:none"
       id="path3929"
       inkscape:connector-curvature="0" />
    <path
       d="m 649.60797,532.1874 c 0,5.13739 -5.06047,9.30163 -11.30585,9.30163 -6.24435,0 -11.30586,-4.16424 -11.30586,-9.30163 0,-5.1374 5.06151,-9.30249 11.30586,-9.30249 6.24538,0 11.30585,4.16509 11.30585,9.30249"
       style="fill:#95dabb;fill-opacity:1;fill-rule:nonzero;stroke:none"
       id="path3931"
       inkscape:connector-curvature="0" />
    <path
       d="m 627.12252,513.0222 c 0,4.86239 -4.79038,8.80356 -10.69943,8.80356 -5.90905,0 -10.70046,-3.94117 -10.70046,-8.80356 0,-4.86154 4.79141,-8.80271 10.70046,-8.80271 5.90905,0 10.69943,3.94117 10.69943,8.80271"
       style="fill:#71c1ed;fill-opacity:1;fill-rule:nonzero;stroke:none"
       id="path3933"
       inkscape:connector-curvature="0" />
  </g>
</svg>
