<?xml version="1.0" encoding="UTF-8" standalone="no"?>
<!-- Created with Inkscape (http://www.inkscape.org/) -->

<svg
   xmlns:dc="http://purl.org/dc/elements/1.1/"
   xmlns:cc="http://creativecommons.org/ns#"
   xmlns:rdf="http://www.w3.org/1999/02/22-rdf-syntax-ns#"
   xmlns:svg="http://www.w3.org/2000/svg"
   xmlns="http://www.w3.org/2000/svg"
   xmlns:sodipodi="http://sodipodi.sourceforge.net/DTD/sodipodi-0.dtd"
   xmlns:inkscape="http://www.inkscape.org/namespaces/inkscape"
   width="298.64087"
   height="248.04033"
   viewBox="0 0 298.64088 248.04034"
   id="svg4873"
   version="1.1"
   inkscape:version="0.91 r"
   sodipodi:docname="opportunist.svg">
  <defs
     id="defs4875" />
  <sodipodi:namedview
     id="base"
     pagecolor="#ffffff"
     bordercolor="#666666"
     borderopacity="1.0"
     inkscape:pageopacity="0"
     inkscape:pageshadow="2"
     inkscape:zoom="7.9195959"
     inkscape:cx="129.87078"
     inkscape:cy="221.98407"
     inkscape:document-units="px"
     inkscape:current-layer="layer1"
     showgrid="false"
     inkscape:window-width="1366"
     inkscape:window-height="716"
     inkscape:window-x="0"
     inkscape:window-y="0"
     inkscape:window-maximized="1"
     units="px"
     width="300mm"
     fit-margin-top="0"
     fit-margin-left="0"
     fit-margin-right="0"
     fit-margin-bottom="0" />
  <metadata
     id="metadata4878">
    <rdf:RDF>
      <cc:Work
         rdf:about="">
        <dc:format>image/svg+xml</dc:format>
        <dc:type
           rdf:resource="http://purl.org/dc/dcmitype/StillImage" />
        <dc:title />
      </cc:Work>
    </rdf:RDF>
  </metadata>
  <g
     inkscape:label="Layer 1"
     inkscape:groupmode="layer"
     id="layer1"
     transform="translate(-2.8049589,-754.1218)">
    <path
       inkscape:connector-curvature="0"
       id="path3352"
       style="fill:#b2d8f7;fill-opacity:1;fill-rule:nonzero;stroke:none"
       d="m 144.12528,865.16875 c 0,0 11.0774,18.79795 12.08451,26.51849 1.00684,7.72053 -17.27785,24.96754 -29.98754,32.66894 -26.855634,16.27264 -39.81975,10.88902 -52.73318,8.08253 -10.20139,-2.21699 -25.379756,-8.29378 -37.128503,-19.11021 0,0 -19.792681,28.03882 -29.1916411,21.66117 l -4.363967,54.04407 c 0,0 196.0357111,12.08416 196.0357111,13.08996 0,1.0074 91.63995,-18.12526 91.63995,-18.12526 l 10.96521,-65.01303 c 0,0 -5.18572,11.26926 -27.572,11.81527 -11.13692,0.27172 -32.402,-0.8462 -42.13676,-6.55282 -9.7345,-5.70636 -66.47284,-52.93897 -73.34981,-57.18391 -6.87695,-4.24493 -14.26198,-1.8952 -14.26198,-1.8952" />
    <path
       inkscape:connector-curvature="0"
       id="path3354"
       style="fill:#66b2ef;fill-opacity:1;fill-rule:nonzero;stroke:none"
       d="m 293.53466,940.53602 c 0,0 -23.88453,9.55459 -37.98298,-2.52987 -14.09847,-12.08424 -32.54997,-41.94157 -51.67087,-59.0488 -17.79056,-15.91665 -46.19959,-29.77869 -63.58691,-29.16662 -9.53738,0.33579 -2.38196,9.39898 -1.59598,13.42714 0.78625,4.02818 9.84969,21.4832 13.70996,24.50454 3.86028,3.02105 19.41465,11.07712 23.88974,20.81188 4.47479,9.73449 -0.70954,29.98591 -32.12189,36.69933 -31.41234,6.71364 -78.204884,18.68732 -98.009809,38.82822 l 232.960139,1.6782 14.4086,-45.20402" />
    <path
       inkscape:connector-curvature="0"
       id="path3372"
       style="fill:#66b2ef;fill-opacity:1;fill-rule:nonzero;stroke:none"
       d="m 38.65689,929.67732 c 0,0 25.177873,3.27605 49.990507,27.30037 24.812483,24.02435 -46.714461,13.10418 -56.542599,0 -9.828125,-13.10418 6.552092,-27.30037 6.552092,-27.30037" />
    <path
       inkscape:connector-curvature="0"
       id="path3376"
       style="fill:#ffffff;fill-opacity:1;fill-rule:nonzero;stroke:none"
       d="m 147.90638,847.15598 c 0,0 -3.14609,-0.20448 -4.3271,-5.78114 -1.18102,-5.57663 -3.45023,-7.44834 -2.89083,-4.57062 0.5591,2.87773 1.07781,8.78717 7.21793,10.35176" />
    <path
       inkscape:connector-curvature="0"
       id="path3378"
       style="fill:#ffffff;fill-opacity:1;fill-rule:nonzero;stroke:none"
       d="m 142.36004,829.26332 c -1.84441,-3.22608 -2.42182,-0.34999 -2.01093,1.801 0.41113,2.15128 3.21242,0.30031 2.01093,-1.801" />
    <path
       inkscape:connector-curvature="0"
       id="path3388"
       style="fill:#4e949c;fill-opacity:1;fill-rule:nonzero;stroke:none"
       d="m 146.76632,844.86357 c 0,0 -1.92248,0.40623 -0.41524,2.93314 1.50726,2.52693 16.92404,18.17932 24.5949,22.9113 7.67086,4.73196 42.00106,21.75238 48.1472,21.56728 4.80294,-0.14442 -6.25999,-12.83118 -11.53796,-16.28932 -5.27826,-3.45785 -53.28129,-29.73036 -60.7889,-31.1224" />
    <path
       inkscape:connector-curvature="0"
       id="path3390"
       style="fill:#a2a4a3;fill-opacity:1;fill-rule:nonzero;stroke:none"
       d="m 138.91965,798.12152 61.56095,27.39073 56.07086,30.94606 L 194.578,840.9102 138.91965,798.12152" />
    <path
       inkscape:connector-curvature="0"
       id="path3392"
       style="fill:#394042;fill-opacity:1;fill-rule:nonzero;stroke:none"
       d="m 164.12963,811.53119 c 0,0 -3.44422,-19.09715 -12.2838,-23.1185 -8.83959,-4.02134 -12.42003,6.84311 -12.42003,6.84311 0,0 1.67843,2.45076 3.133,2.67435 0,0 2.89765,-9.39896 7.92501,-6.57802 6.95668,3.90367 5.97114,17.345 11.27506,21.9058 5.1715,4.44723 12.88112,2.84907 2.37076,-1.72674" />
    <path
       inkscape:connector-curvature="0"
       id="path3394"
       style="fill:#2c2117;fill-opacity:1;fill-rule:nonzero;stroke:none"
       d="m 140.74222,794.97898 c 0,0 -3.06364,-0.60961 -4.26868,-1.99374 -1.20503,-1.38413 -3.26376,-5.75219 -3.26376,-5.75219 0,0 -4.23565,0.39885 -3.94135,3.39753 0,0 2.42045,4.78438 7.7948,6.52724 l 1.79718,0.0609 c 0,0 0.27737,0.87362 0.87634,1.50972 0.59925,0.63637 2.30852,1.09638 2.76553,1.23507 0.45673,0.13868 0.50914,-3.16685 0.50914,-3.16685 l -2.2692,-1.81766" />
    <path
       inkscape:connector-curvature="0"
       id="path3396"
       style="fill:#394042;fill-opacity:1;fill-rule:nonzero;stroke:none"
       d="m 172.32247,814.61559 c 0,0 3.13817,18.47878 6.91955,25.86354 l -4.53324,1.51053 c 0,0 -2.97409,-17.11951 -4.12726,-21.98689 -1.1529,-4.86712 -6.40931,-3.9714 -7.67905,-6.51933 -1.26947,-2.54822 0.60989,-5.47564 4.15539,-4.09369 3.5455,1.38194 5.26461,5.22584 5.26461,5.22584" />
    <path
       inkscape:connector-curvature="0"
       id="path3404"
       style="fill:#fcd0a4;fill-opacity:1;fill-rule:nonzero;stroke:none"
       d="m 173.68175,786.39439 c 0,0 0.64428,3.49471 0.20748,4.64679 -0.4368,1.15207 1.86517,1.5987 2.51546,0.44525 0.65029,-1.15315 -0.16272,-5.31619 -0.0604,-5.52831 0.1027,-0.21212 -2.66261,0.43627 -2.66261,0.43627" />
    <path
       inkscape:connector-curvature="0"
       id="path3416"
       style="fill:#ffffff;fill-opacity:1;fill-rule:nonzero;stroke:none"
       d="m 174.21983,789.04933 c 0,0 -0.35244,-0.19601 -1.09938,-0.14167 0,0 -0.43927,1.46439 -0.81328,2.12122 l 1.44174,-0.0103 c 0,0 0.46001,-1.34809 0.47092,-1.96889" />
    <path
       inkscape:connector-curvature="0"
       id="path3420"
       style="fill:#1c1f21;fill-opacity:1;fill-rule:nonzero;stroke:none"
       d="m 163.32999,805.49099 -0.5318,3.81304 0.83101,0.15779 -0.17471,0.80181 c 0,0 4.82643,4.6629 7.60751,5.84828 0,0 -3.09695,-1.55202 -8.14261,-5.18679 l 0.25363,-1.04178 c 0,0 -0.49932,-0.30167 -0.72646,-0.34044 0,0 0.18428,-2.878 0.88343,-4.05191" />
    <g
       id="g4219">
      <path
         d="m 172.94956,789.44247 c 0,0 -8.22697,5.41585 -14.11403,-0.38029 -5.88704,-5.79615 -4.68282,-10.44976 -4.79285,-14.64282 0,0 -1.44009,-0.55011 -3.57907,-0.0972 0,0 -1.70518,10.72304 6.53952,16.26884 8.24445,5.54552 13.28956,1.25908 14.94505,0.7352 1.65522,-0.52391 3.18131,-3.02816 1.00138,-1.88373"
         style="fill:#d2193b;fill-opacity:1;fill-rule:nonzero;stroke:none"
         id="path3398"
         inkscape:connector-curvature="0" />
      <path
         d="m 180.15685,788.68952 c 0.38631,0.0481 13.38209,2.99049 14.79953,10.48115 1.41744,7.49068 -12.31055,10.97039 -15.9183,10.97229 0,0 -2.15563,-2.97791 -0.39858,-4.21052 0,0 14.04904,0.0453 13.64772,-5.93702 -0.35081,-5.22693 -9.97582,-8.17019 -12.34469,-8.33617 -2.36884,-0.16571 -1.6847,-3.20696 0.21432,-2.96973"
         style="fill:#d2193b;fill-opacity:1;fill-rule:nonzero;stroke:none"
         id="path3400"
         inkscape:connector-curvature="0" />
      <path
         d="m 171.39507,790.74415 c 0,0 -2.5403,6.87013 -3.59901,9.61381 -1.05899,2.7437 -3.22826,4.78877 -5.06422,5.36917 0,0 -1.49004,4.61376 -1.11794,5.08933 l 1.87417,-0.73165 0.13677,1.67897 c 0,0 6.65883,4.80351 10.96055,6.15733 0,0 -0.81765,-1.15481 0.003,-2.59025 2.03305,-3.5548 5.73116,-10.40717 6.87668,-15.0952 1.60826,-6.5813 0.36746,-11.316 -1.30851,-11.54614 -1.67596,-0.23041 -8.76178,2.05463 -8.76178,2.05463"
         style="fill:#d2193b;fill-opacity:1;fill-rule:nonzero;stroke:none"
         id="path3402"
         inkscape:connector-curvature="0" />
      <path
         d="m 174.82673,789.44683 -0.55639,2.24382 -0.22932,-1.85425 -1.68498,2.10431 c 0,0 -2.92797,10.05364 -4.59437,12.44734 0,0 9.82184,-9.06891 9.46913,-12.4749 -0.35272,-3.40572 -0.69644,-2.08166 -0.69644,-2.08166 l -1.70763,-0.38466"
         style="fill:#d2193b;fill-opacity:1;fill-rule:nonzero;stroke:none"
         id="path3406"
         inkscape:connector-curvature="0" />
    </g>
    <path
       inkscape:connector-curvature="0"
       id="path3410"
       style="fill:#d2193b;fill-opacity:1;fill-rule:nonzero;stroke:none"
       d="m 176.97417,790.15528 c 0,0 1.22143,1.42207 3.11224,2.95199 0,0 -4.1734,3.45049 -5.10325,4.0571 0,0 2.64923,3.08713 2.525,4.7762 0,0 -10.14645,3.82151 -11.69574,4.9886 0,0 1.50998,-2.01532 3.39999,-3.93426 1.89,-1.91894 8.83876,-8.54501 7.76176,-12.83963" />
    <path
       inkscape:connector-curvature="0"
       id="path3418"
       style="fill:#d2193b;fill-opacity:1;fill-rule:nonzero;stroke:none"
       d="m 176.62964,787.75258 -1.80291,1.69425 c 0,0 1.15206,1.62902 1.31833,1.87936 0,0 1.07482,-1.49006 1.31697,-2.31698 l -0.83239,-1.25663" />
    <path
       inkscape:connector-curvature="0"
       id="path3422"
       style="fill:#d2193b;fill-opacity:1;fill-rule:nonzero;stroke:none"
       d="m 164.57517,807.51094 c 0.16926,0.11962 0.44909,0.0145 0.62544,-0.23479 0.17609,-0.24925 0.1821,-0.54819 0.0128,-0.66776 -0.16899,-0.11963 -0.44909,-0.0145 -0.62518,0.23478 -0.17636,0.24926 -0.1821,0.5482 -0.0131,0.66777" />
    <path
       inkscape:connector-curvature="0"
       id="path3424"
       style="fill:#d2193b;fill-opacity:1;fill-rule:nonzero;stroke:none"
       d="m 163.59262,808.53033 c 0.14633,0.14661 0.44009,0.0909 0.65631,-0.1245 0.21622,-0.21566 0.273,-0.50914 0.12668,-0.65574 -0.14635,-0.14688 -0.44009,-0.0912 -0.65631,0.1245 -0.21622,0.21541 -0.27273,0.50888 -0.12668,0.65575" />
    <path
       inkscape:connector-curvature="0"
       id="path3426"
       style="fill:#1c1f21;fill-opacity:1;fill-rule:nonzero;stroke:none"
       d="m 165.81242,806.92917 c 0,0 -1.40352,1.93586 -1.82066,2.35956 0,0 1.16872,-1.70435 1.82066,-2.35956" />
    <path
       inkscape:connector-curvature="0"
       id="path3428"
       style="fill:#fcd0a4;fill-opacity:1;fill-rule:nonzero;stroke:none"
       d="m 179.24911,806.18223 c 0,0 -1.41716,-2.10513 -2.65496,-2.59135 -1.23807,-0.48622 -1.93833,-0.34344 -1.5441,0.3033 0.39393,0.64675 1.5785,1.68689 1.65795,2.42401 0,0 -1.10377,-0.75404 -2.27031,-0.93504 -1.16627,-0.18101 -2.08219,0.21266 -2.04724,0.76932 0.0353,0.55638 1.66832,0.97134 2.36803,1.18756 0.69969,0.21623 1.1466,0.84741 1.1466,0.84741 0,0 -2.12123,-0.87362 -3.05299,-0.0904 -0.93176,0.78298 -0.3762,1.55557 0.4136,1.50288 0.7898,-0.053 2.28422,0.2266 2.79311,0.35763 0.50914,0.13105 2.49933,0.68634 3.05708,0.13241 0.55802,-0.55392 1.17529,-3.11333 0.13323,-3.90776" />
    <path
       inkscape:connector-curvature="0"
       id="path3430"
       style="fill:#fcd0a4;fill-opacity:1;fill-rule:nonzero;stroke:none"
       d="m 172.97767,765.59178 c 0,0 -8.29794,17.06819 -7.85159,18.22682 0.44609,1.15861 9.40362,3.79038 10.55979,3.43957 1.1559,-0.35082 5.88896,-5.76365 7.40139,-8.68453 1.51245,-2.92085 1.28149,-12.00369 -0.12744,-12.90187 -1.4087,-0.89818 -9.9821,-0.08 -9.9821,-0.08" />
    <path
       inkscape:connector-curvature="0"
       id="path3432"
       style="fill:#614f26;fill-opacity:1;fill-rule:nonzero;stroke:none"
       d="m 173.94383,766.9557 c 0,0 -4.59302,0.25745 -4.89714,-2.61701 -0.30413,-2.87473 2.48243,0.0674 2.48243,0.0674 0,0 -1.28968,-5.28998 1.33471,-6.93838 2.62438,-1.64867 4.60366,-0.63937 4.86929,0.13213 0.26563,0.77151 -1.20804,2.2602 -1.20804,2.2602 0,0 7.0293,-2.00658 7.92693,0.11962 0.89764,2.12643 -2.15618,2.00002 -2.15618,2.00002 0,0 5.43304,0.47749 6.9575,4.14966 0,0 3.92988,-0.46656 4.18514,0.68689 0.25554,1.15344 -1.27465,1.20749 -1.27465,1.20749 0,0 2.30305,2.25992 1.19658,2.9943 -1.10675,0.73439 -3.44968,-0.95359 -3.44968,-0.95359 0,0 -1.74012,7.78742 -6.39019,10.14534 0,0 2.76825,3.61021 1.60198,4.34296 -1.16654,0.73246 -2.24982,-1.58998 -2.24982,-1.58998 0,0 1.25363,3.09149 -0.18373,3.24356 -1.43737,0.15206 -3.09286,-1.97437 -2.77537,-3.11252 0.31751,-1.13788 3.17367,-4.52012 3.17367,-4.52012 0,0 -3.83023,-3.47561 0.15343,-9.16801 0,0 -4.61894,1.21214 -5.16332,0.14633 -0.54436,-1.06553 1.66178,-1.38795 1.66178,-1.38795 0,0 -5.95557,1.17583 -6.7915,0.29347 -0.83595,-0.88261 0.99618,-1.50179 0.99618,-1.50179" />
    <path
       inkscape:connector-curvature="0"
       id="path3434"
       style="fill:#fcd0a4;fill-opacity:1;fill-rule:nonzero;stroke:none"
       d="m 181.72744,779.39647 c 0,0 2.17038,-2.52063 3.48625,-1.72045 1.31587,0.79989 2.42455,3.32217 1.30496,4.71694 -1.11959,1.39478 -2.35875,2.42018 -4.51576,0.92849 -2.15699,-1.4917 -0.27545,-3.92498 -0.27545,-3.92498" />
    <path
       inkscape:connector-curvature="0"
       id="path3436"
       style="fill:#c38052;fill-opacity:1;fill-rule:nonzero;stroke:none"
       d="m 174.46827,772.27272 c 0,0 -1.22715,2.97629 -1.74586,2.72322 -0.5187,-0.25281 -1.25527,-1.27603 -1.93777,-0.76906 -0.68252,0.50697 -0.33171,1.66287 1.13651,2.1327 0,0 -2.23454,-0.39503 -1.90939,-1.81929 0.32542,-1.42426 1.76961,-1.00302 2.20014,-0.56129 0.43052,0.44145 1.4035,-0.20094 2.25637,-1.70628" />
    <path
       inkscape:connector-curvature="0"
       id="path3438"
       style="fill:#140e0c;fill-opacity:1;fill-rule:nonzero;stroke:none"
       d="m 175.82673,773.26482 c 0,0 2.86682,-0.0174 3.47834,0.33334 0,0 -1.67596,0.14577 -2.30032,0.27191 0,0 1.69262,1.00138 1.77234,1.57686 0,0 -2.45759,-0.97434 -2.95036,-2.18211" />
    <path
       inkscape:connector-curvature="0"
       id="path3440"
       style="fill:#403218;fill-opacity:1;fill-rule:nonzero;stroke:none"
       d="m 176.2488,771.79551 c 0,0 1.53045,-1.81875 3.11579,-0.39176 0,0 -1.76606,-0.0494 -3.11579,0.39176" />
    <path
       inkscape:connector-curvature="0"
       id="path3442"
       style="fill:#403218;fill-opacity:1;fill-rule:nonzero;stroke:none"
       d="m 172.35195,768.82332 c 0,0 1.9427,-0.71145 2.19167,0.6806 0,0 -1.28912,-0.63637 -2.19167,-0.6806" />
    <path
       inkscape:connector-curvature="0"
       id="path3444"
       style="fill:#692926;fill-opacity:1;fill-rule:nonzero;stroke:none"
       d="m 169.32625,778.67766 c 0,0 0.34207,5.34841 2.62193,6.55836 0.49577,-3.27331 4.05,-3.85891 5.46007,-3.961 0.77614,-1.27356 1.27438,-2.34319 1.27438,-2.34319 -2.10814,0.22932 -9.35638,-0.25417 -9.35638,-0.25417" />
    <path
       inkscape:connector-curvature="0"
       id="path3446"
       style="fill:#ed8f8f;fill-opacity:1;fill-rule:nonzero;stroke:none"
       d="m 171.94818,785.23602 c 0.19683,0.10463 0.40677,0.18155 0.63364,0.21813 1.73739,0.27984 3.61893,-2.19741 4.82643,-4.17913 -1.41007,0.10205 -4.9643,0.68769 -5.46007,3.961" />
    <path
       inkscape:connector-curvature="0"
       id="path3448"
       style="fill:#fcd0a4;fill-opacity:1;fill-rule:nonzero;stroke:none"
       d="m 150.64378,774.48651 c 0,0 -2.04533,-3.1865 -2.12696,-4.308 -0.0814,-1.1215 3.41937,-0.82392 4.55997,-0.0469 1.14035,0.77723 0.20531,4.33747 0.20531,4.33747 0,0 -1.15262,-0.38985 -2.63832,0.0174" />
    <path
       inkscape:connector-curvature="0"
       id="path3450"
       style="fill:#f1c316;fill-opacity:1;fill-rule:nonzero;stroke:none"
       d="m 133.71893,760.11669 16.50471,3.9621 -2.08956,9.17811 -16.18094,-1.85015 1.76579,-11.29006" />
    <path
       inkscape:connector-curvature="0"
       id="path3452"
       style="fill:#f1c316;fill-opacity:1;fill-rule:nonzero;stroke:none"
       d="m 135.3474,761.73068 12.92699,2.43957 -0.68851,5.07131 -13.35943,-1.65113 1.12095,-5.85975" />
    <path
       inkscape:connector-curvature="0"
       id="path3454"
       style="fill:#b99816;fill-opacity:1;fill-rule:nonzero;stroke:none"
       d="m 160.02255,770.662 9.59309,-0.11526 0.38002,2.46714 -8.9963,0.30085 -0.97681,-2.65278" />
    <path
       inkscape:connector-curvature="0"
       id="path3456"
       style="fill:#f1c316;fill-opacity:1;fill-rule:nonzero;stroke:none"
       d="m 161.32697,770.98742 8.36537,0.0582 0.13787,0.89436 -8.54392,0.26481 0.0406,-1.21732" />
    <path
       inkscape:connector-curvature="0"
       id="path3458"
       style="fill:#766319;fill-opacity:1;fill-rule:nonzero;stroke:none"
       d="m 169.01011,770.48099 2.83569,-0.68387 c 0,0 1.38767,1.52692 0.67541,3.38552 l -3.01423,0.12745 -0.49687,-2.82915" />
    <path
       inkscape:connector-curvature="0"
       id="path3460"
       style="fill:#f1c316;fill-opacity:1;fill-rule:nonzero;stroke:none"
       d="m 148.43955,765.82438 14.24806,3.89576 -1.63584,5.32684 -14.08916,-3.31098 1.47694,-5.91162" />
    <path
       inkscape:connector-curvature="0"
       id="path3462"
       style="fill:#f1c316;fill-opacity:1;fill-rule:nonzero;stroke:none"
       d="m 150.07539,766.68106 11.80523,3.37978 -0.82365,2.86955 -11.64633,-2.79501 0.66475,-3.45432" />
    <path
       inkscape:connector-curvature="0"
       id="path3464"
       style="fill:#fcd0a4;fill-opacity:1;fill-rule:nonzero;stroke:none"
       d="m 153.38557,774.32052 c 0,0 3.17367,-1.11658 3.64378,-1.94351 0.47011,-0.82666 0.53917,-3.36586 0.10129,-3.73033 -0.43791,-0.36417 -1.7849,0.22114 -1.63475,2.49417 0,0 -3.0145,-0.28639 -3.16438,1.10866 -0.14961,1.39506 0.28309,1.60226 1.05406,2.07101" />
    <path
       inkscape:connector-curvature="0"
       id="path3466"
       style="fill:#f1c316;fill-opacity:1;fill-rule:nonzero;stroke:none"
       d="m 123.3923,754.1218 12.31328,3.56625 -3.97302,15.67941 -12.25377,-1.71665 c 0,0 3.63968,-16.04359 3.91351,-17.52901" />
    <path
       inkscape:connector-curvature="0"
       id="path3468"
       style="fill:#f1c316;fill-opacity:1;fill-rule:nonzero;stroke:none"
       d="m 124.73356,756.16797 9.73695,2.43137 -2.17229,8.99819 -10.31598,-2.19112 c 0,0 2.59489,-8.39023 2.75132,-9.23844" />
    <path
       inkscape:connector-curvature="0"
       id="path3484"
       style="fill:#ffffff;fill-opacity:1;fill-rule:nonzero;stroke:none"
       d="m 169.21787,832.49732 c 0,0 41.33274,-37.31168 43.72917,-38.56913 l -25.25448,64.59239 -18.47469,-26.02326" />
    <path
       inkscape:connector-curvature="0"
       id="path3486"
       style="fill:#cccccc;fill-opacity:1;fill-rule:nonzero;stroke:none"
       d="m 219.09318,856.62511 -6.14614,-62.69692 -25.23018,63.92161 31.37632,-1.22469" />
    <path
       inkscape:connector-curvature="0"
       id="path3488"
       style="fill:#e5e6eb;fill-opacity:1;fill-rule:nonzero;stroke:none"
       d="m 138.91965,798.12152 59.96689,37.34444 -35.61224,23.65986 c 0,0 -15.99691,-12.02746 -16.92322,-12.73261 -0.9263,-0.7049 -7.43143,-48.27169 -7.43143,-48.27169" />
    <path
       inkscape:connector-curvature="0"
       id="path3490"
       style="fill:#c4c5c3;fill-opacity:1;fill-rule:nonzero;stroke:none"
       d="m 191.68033,873.30481 c 0.75431,-0.0716 7.20621,-37.83885 7.20621,-37.83885 l -35.61224,23.65986 c 0,0 27.12073,14.30075 28.40603,14.17899" />
    <path
       inkscape:connector-curvature="0"
       id="path3492"
       style="fill:#e5e6eb;fill-opacity:1;fill-rule:nonzero;stroke:none"
       d="m 256.55146,856.45831 -57.66492,-20.99235 -7.20621,37.83885 16.9669,6.5944 47.90423,-23.4409" />
    <path
       inkscape:connector-curvature="0"
       id="path3494"
       style="fill:#ffffff;fill-opacity:1;fill-rule:nonzero;stroke:none"
       d="m 210.1422,879.16757 c 1.7909,0.84985 0.81382,1.64156 -1.49497,0.73164 -1.69344,-0.66722 -8.91821,-2.27521 -12.19426,-3.36723 -3.27604,-1.09201 -5.46033,-0.54601 -8.73611,-2.18402 -3.27603,-1.63802 -6.89115,-4.33966 -9.63375,-5.53679 -2.74231,-1.19712 -10.11588,-4.41146 -14.52815,-7.44536 -4.41256,-3.03388 -7.5401,-8.32197 -10.25265,-8.51198 -2.71257,-0.19028 -4.62496,-4.12262 -6.87724,-5.76065 -1.79145,-1.30276 -0.65467,-2.08219 1.48131,-0.69997 2.13598,1.38249 7.98755,6.44234 9.61164,6.46062 1.62438,0.018 4.93345,2.64104 6.19091,3.60448 1.25772,0.96342 4.63968,3.75543 7.77186,4.9075 3.1319,1.15209 10.9409,6.82236 12.40556,7.44536 1.46439,0.62272 4.55533,3.60147 7.1961,3.35275 2.6405,-0.24842 16.55166,5.8139 19.05975,7.00365" />
    <path
       style="opacity:0;fill:#711361;fill-opacity:0.6"
       d="m 194.92475,1001.3828 c -2.09841,-0.5097 -71.24011,-5.10896 -147.20533,-9.79186 -20.782904,-1.2812 -39.3542976,-2.4943 -41.2697787,-2.6958 l -3.4826988,-0.3664 0.352956,-2.7416 c 0.1941137,-1.5079 1.1146406,-12.7962 2.0455912,-25.08524 0.9309762,-12.28904 1.8128342,-22.95072 1.9597015,-23.69267 0.221564,-1.11931 0.6583068,-1.30334 2.5650311,-1.08073 1.5072267,0.17596 3.3710637,-0.25118 5.4163347,-1.24128 3.717366,-1.79954 12.102653,-9.61443 17.301731,-16.12478 l 3.73815,-4.68096 4.207855,3.27673 c 11.833842,9.21516 25.597948,14.7278 44.92618,17.99328 7.606438,1.2851 15.377767,0.56212 23.347747,-2.17208 16.20543,-5.55948 34.8758,-19.32306 43.96198,-32.40826 3.69802,-5.32562 4.25506,-7.5093 2.99658,-11.7471 -1.29589,-4.36375 -4.46021,-11.29504 -8.3628,-18.31829 -1.93965,-3.4907 -2.69747,-5.42163 -2.1278,-5.42163 0.48665,0 2.36315,2.73547 4.17004,6.0788 5.02949,9.30629 6.59085,11.08689 14.35406,16.36952 14.05915,9.56683 18.8242,15.54399 18.77116,23.54603 -0.0788,11.89362 -9.99301,22.46482 -25.78236,27.49101 -2.34937,0.74785 -10.86598,2.87185 -18.92579,4.71998 -16.26257,3.72901 -28.6249,7.17061 -40.659391,11.31935 l -7.997584,2.75708 -3.174246,-2.94885 C 74.582543,943.76189 59.599752,935.21374 45.124246,931.06641 l -6.209585,-1.77909 -3.099677,3.37103 c -9.835112,10.69613 -9.15233,22.36481 1.680135,28.71306 3.898645,2.28476 10.855183,4.77586 19.004123,6.80534 l 7.143766,1.77909 -2.868753,1.88991 c -3.517393,2.31729 -9.111841,6.97179 -9.111841,7.58099 0,0.2459 32.603682,0.6436 72.452626,0.8839 39.84894,0.2402 92.2662,0.6281 116.4828,0.8619 l 44.03017,0.4251 5.91031,-18.77619 c 3.25067,-10.32689 5.99602,-18.69046 6.10074,-18.58574 0.1673,0.16731 -5.21354,33.38113 -6.14315,37.91923 -0.25556,1.2476 -0.85564,1.8243 -2.12622,2.0437 -0.97359,0.1682 -21.00483,4.1915 -44.51389,8.9409 -38.71727,7.82176 -45.77308,9.01046 -48.93105,8.24326 z"
       id="path4784"
       inkscape:connector-curvature="0" />
  </g>
</svg>
