<?xml version="1.0" encoding="UTF-8" standalone="no"?>
<!-- Created with Inkscape (http://www.inkscape.org/) -->

<svg
   xmlns:dc="http://purl.org/dc/elements/1.1/"
   xmlns:cc="http://creativecommons.org/ns#"
   xmlns:rdf="http://www.w3.org/1999/02/22-rdf-syntax-ns#"
   xmlns:svg="http://www.w3.org/2000/svg"
   xmlns="http://www.w3.org/2000/svg"
   xmlns:sodipodi="http://sodipodi.sourceforge.net/DTD/sodipodi-0.dtd"
   xmlns:inkscape="http://www.inkscape.org/namespaces/inkscape"
   width="300"
   height="300"
   viewBox="0 0 299.99999 300"
   id="svg2"
   version="1.1"
   inkscape:version="0.91 r"
   sodipodi:docname="search.svg">
  <defs
     id="defs4">
    <clipPath
       id="clipPath1100"
       clipPathUnits="userSpaceOnUse">
      <path
         inkscape:connector-curvature="0"
         id="path1102"
         d="m 8330.31,2962.86 c 0,0 -27.94,12.59 -44.11,12.59 l 0,0 c 16.17,0 44.11,-12.59 44.11,-12.59 l 0,0 m -52.37,10.68 c 1.98,1.35 4.85,1.9 8.23,1.91 -3.38,-0.01 -6.25,-0.57 -8.23,-1.91 m -935.42,21.71 0,0 c 0,0 11.98,3.64 23.67,3.67 -11.69,-0.03 -23.67,-3.67 -23.67,-3.67 m 23.88,3.67 c -0.02,0 -0.05,0 -0.07,0 l 0,0 c 0.02,0 0.05,0 0.07,0 m 82.88,191.64 c 0,0 0,0 0,0.01 0,-0.01 0,-0.01 0,-0.01 m 0,0.01 0.01,0 -0.01,0" />
    </clipPath>
  </defs>
  <sodipodi:namedview
     id="base"
     pagecolor="#ffffff"
     bordercolor="#666666"
     borderopacity="1.0"
     inkscape:pageopacity="0.0"
     inkscape:pageshadow="2"
     inkscape:zoom="0.7"
     inkscape:cx="8.0932475"
     inkscape:cy="128.23356"
     inkscape:document-units="px"
     inkscape:current-layer="layer1"
     showgrid="false"
     fit-margin-top="0"
     fit-margin-left="0"
     fit-margin-right="0"
     fit-margin-bottom="0"
     units="px"
     inkscape:window-width="1366"
     inkscape:window-height="716"
     inkscape:window-x="0"
     inkscape:window-y="0"
     inkscape:window-maximized="1" />
  <metadata
     id="metadata7">
    <rdf:RDF>
      <cc:Work
         rdf:about="">
        <dc:format>image/svg+xml</dc:format>
        <dc:type
           rdf:resource="http://purl.org/dc/dcmitype/StillImage" />
        <dc:title></dc:title>
      </cc:Work>
    </rdf:RDF>
  </metadata>
  <g
     inkscape:label="Layer 1"
     inkscape:groupmode="layer"
     id="layer1"
     transform="translate(-125.65528,-888.56379)">
    <path
       inkscape:connector-curvature="0"
       id="path1060"
       style="fill:#d2193b;fill-opacity:1;fill-rule:nonzero;stroke:none"
       d="m 241.49859,1114.9948 c 0,0 -1.1938,-61.0988 -0.4425,-66.9713 l 35.6962,-8.25 35.6963,8.25 c 0.7462,5.8725 -0.445,66.9713 -0.445,66.9713 0,2.4262 2.0337,26.6325 0.3975,29.9725 l -0.026,0.065 -0.044,0.06 -0.1025,0.13 -0.084,0.07 c -2.1013,1.8037 -15.7863,3.2137 -32.6413,3.305 l 0,0 c -0.1362,0 -2.175,10e-4 -2.7512,10e-4 -0.5763,0 -2.6175,-10e-4 -2.7513,-10e-4 l 0,-0 c -16.8562,-0.091 -30.54,-1.5013 -32.6462,-3.305 l -0.081,-0.07 -0.1025,-0.13 -0.041,-0.06 -0.028,-0.065 c -1.64,-3.34 0.3962,-27.5463 0.3962,-29.9725" />
    <path
       inkscape:connector-curvature="0"
       id="path1062"
       style="fill:#c21a37;fill-opacity:1;fill-rule:nonzero;stroke:none"
       d="m 241.21979,1098.8898 71.065,0 c -0.1487,9.2912 -0.2812,16.105 -0.2812,16.105 0,2.4262 2.0337,26.6325 0.3975,29.9725 l -0.026,0.065 -0.044,0.06 -0.1025,0.13 -0.084,0.07 c -2.1013,1.8037 -15.7863,3.2137 -32.6413,3.305 l 0,0 c -0.1362,0 -2.175,10e-4 -2.7512,10e-4 -0.5763,0 -2.6175,-10e-4 -2.7513,-10e-4 l 0,-0 c -16.8562,-0.091 -30.54,-1.5013 -32.6462,-3.305 l -0.081,-0.07 -0.1025,-0.13 -0.041,-0.06 -0.028,-0.065 c -1.64,-3.34 0.3962,-27.5463 0.3962,-29.9725 0,0 -0.135,-6.8138 -0.2787,-16.105" />
    <path
       inkscape:connector-curvature="0"
       id="path1068"
       style="fill:#f5f014;fill-opacity:1;fill-rule:nonzero;stroke:none"
       d="m 301.95729,1045.5985 c 0,2.1138 -18.5425,15.7363 -25.31,15.7363 -6.765,0 -25.2437,-13.5875 -25.2437,-15.7013 0,0 9.3775,-7.4762 25.2775,-7.4375 17.2262,0.04 25.2762,7.4025 25.2762,7.4025" />
    <path
       inkscape:connector-curvature="0"
       id="path1070"
       style="fill:#dfae7c;fill-opacity:1;fill-rule:nonzero;stroke:none"
       d="m 267.30859,1047.7435 c 0,1.9725 4.7212,11.23 9.4412,11.23 4.7213,0 9.4413,-9.2575 9.4413,-11.23 l 0,-17.6162 c 0,-3.9413 -3.1938,-7.1375 -7.1375,-7.1375 l -4.6088,0 c -3.9375,0 -7.1362,3.1962 -7.1362,7.1375 l 0,17.6162" />
    <path
       inkscape:connector-curvature="0"
       id="path1072"
       style="fill:#a71a35;fill-opacity:1;fill-rule:nonzero;stroke:none"
       d="m 283.94229,1104.6535 c 0.2925,0 0.525,-0.2375 0.525,-0.5275 0,-1.2512 -0.064,-30.7987 -5.8275,-43.5887 -0.1175,-0.265 -0.43,-0.3825 -0.6962,-0.2638 -0.2638,0.1188 -0.3813,0.4313 -0.2638,0.6938 5.6713,12.5862 5.7375,42.855 5.7375,43.1587 0,0.29 0.2363,0.5275 0.525,0.5275" />
    <path
       inkscape:connector-curvature="0"
       id="path1074"
       style="fill:#a71a35;fill-opacity:1;fill-rule:nonzero;stroke:none"
       d="m 271.08609,1104.586 c 0.2875,0 0.525,-0.2337 0.525,-0.525 0,-0.3037 0.065,-30.5712 5.7362,-43.1562 0.12,-0.265 0,-0.5775 -0.2625,-0.6975 -0.2637,-0.1213 -0.5762,-10e-4 -0.6962,0.2662 -5.7638,12.79 -5.83,42.3363 -5.83,43.5875 0,0.2913 0.2337,0.525 0.5275,0.525" />
    <path
       inkscape:connector-curvature="0"
       id="path1076"
       style="fill:#e7f5fc;fill-opacity:1;fill-rule:nonzero;stroke:none"
       d="m 284.17859,1103.9735 c 0.2937,0 0.5275,-0.235 0.5275,-0.5262 0,-1.25 -0.069,-30.7975 -5.83,-43.5888 -0.12,-0.265 -0.43,-0.3825 -0.6963,-0.265 -0.265,0.12 -0.3825,0.4313 -0.2625,0.6963 5.6713,12.585 5.7363,42.8537 5.7363,43.1575 0,0.2912 0.235,0.5262 0.525,0.5262" />
    <path
       inkscape:connector-curvature="0"
       id="path1078"
       style="fill:#e7f5fc;fill-opacity:1;fill-rule:nonzero;stroke:none"
       d="m 270.86609,1103.9735 c 0.2875,0 0.525,-0.235 0.525,-0.5262 0,-0.3038 0.066,-30.5725 5.7375,-43.1575 0.1162,-0.265 0,-0.5763 -0.2613,-0.6963 -0.2687,-0.1212 -0.5762,-10e-4 -0.6987,0.265 -5.7638,12.7913 -5.8275,42.3388 -5.8275,43.5888 0,0.2912 0.2325,0.5262 0.525,0.5262" />
    <path
       inkscape:connector-curvature="0"
       id="path1094"
       style="fill:#5b3b17;fill-opacity:1;fill-rule:nonzero;stroke:none"
       d="m 238.03609,1007.9473 c 0,0 -1.3113,-10.50626 -4.5013,-19.36247 -3.1962,-8.8563 -5.74,-17.45 -7.2125,-18.6538 -1.475,-1.2075 -5.095,-0.1075 -5.095,-0.1075 l 5.5125,-6.2962 c 0,0 -4.0037,0.1837 -5.1387,0.55 0,0 9.0137,-15.8213 19.9137,-19.7675 l -6.9425,1.1 c 0,0 7.2063,-11.945 25.11,-17.8738 17.905,-5.935 43.3563,-5.165 51.1913,7.325 l 1.1662,-7.69 c 0,0 1.6,6.0938 1.2675,11.1713 0,0 5.3513,-3.865 11.8488,-1.4438 l -6.8713,3.32 c 0,0 14.09,1.585 26.0425,22.3213 l -6.7137,-2.4313 c 0,0 3.9962,6.685 7.0875,13.7638 0,0 -5.1738,-2.33 -6.57,-1.3188 -1.3963,1.02 -10.5488,22.37881 -13.82,28.37377 -3.2738,5.995 -13.2863,13.3262 -13.2863,13.3262 l -72.9887,-6.3062" />
    <g
       id="g1096"
       transform="matrix(0.125,0,0,-0.125,-696.58771,1344.2298)">
      <g
         clip-path="url(#clipPath1100)"
         id="g1098">
        <path
           inkscape:connector-curvature="0"
           id="path1104"
           style="fill:#ac9d79;fill-opacity:1;fill-rule:nonzero;stroke:none"
           d="m 7342.52,2962.86 987.793,0 0,227.715 -987.793,0 0,-227.715 z" />
      </g>
    </g>
    <path
       inkscape:connector-curvature="0"
       id="path1106"
       style="fill:#3b2515;fill-opacity:1;fill-rule:nonzero;stroke:none"
       d="m 318.09109,1008.3298 c 0.3625,-2.1625 0.4675,-4.2025 0.365,-6.01 -0.7275,-12.68877 0.3912,-12.83377 1.2062,-18.54747 0.8125,-5.71 1.9575,-9.63 0.6838,-13.9263 l -0.8425,6.1563 c 0,0 -9.1163,-3.0338 -12.8738,-3.28 l -1.0225,-8.05 -1.1375,7.2425 -13.87,-1.5663 c 0,0 0.525,-4.625 1.9925,-6.7462 0,0 -3.2912,2.89 -4.1587,5.94 0,0 -11.4125,-0.6475 -20.4013,-0.6475 -4.5387,0 -8.4587,0.165 -9.9787,0.6625 0,0 0.01,-3.545 1.3187,-6.5663 0,0 -3.1212,3.57 -4.2587,7.4863 0,0 -2.7663,-0.2338 -5.8538,-0.2338 -3.2575,0 -6.8725,0.2613 -7.9662,1.33 l -0.1,-8.6537 c 0,0 -4.9638,8.0987 -2.6563,16.9 1.8725,7.1262 -0.435,15.87621 -1.6512,21.27997 -0.7288,-3.66246 -1.825,-8.27747 -3.3513,-12.51497 -3.1962,-8.8563 -5.74,-17.45 -7.2125,-18.6538 l 0,0 c -0.52,-0.4262 -1.3087,-0.565 -2.11,-0.5662 0,0 -0.01,0 -0.01,0 l 0,0 c -0.01,0 -0.013,0 -0.018,0 -1.4612,0 -2.9587,0.4587 -2.9587,0.4587 l 5.5125,-6.2962 0,0 c 0,0 -4.0038,0.1837 -5.1388,0.55 0,0 9.0138,-15.8213 19.9138,-19.7675 l 0,0 -6.9425,1.1 0,0 c 0,0 0,0 0,0 0,0 0,0 0,0 l 10e-4,0 c 0.059,-0.099 3.0437,-4.97 9.8325,-10.0125 -2.0388,1.84 -3.9288,3.8325 -5.5275,6.0787 -0.2088,0.2938 0.035,0.6938 0.3637,0.6938 0.03,0 0.06,0 0.09,-0.01 6.3438,-1.4113 12.3,-4.1125 18.4963,-5.9788 -9.7213,4.2188 -18.42,11.2163 -24.7575,19.5538 -0.2388,0.3125 0.058,0.6825 0.3862,0.6825 0.06,0 0.1213,-0.013 0.18,-0.039 6.1938,-2.8438 12.0625,-6.3288 17.7,-10.15 -3.7525,5.0837 -6.3775,10.9262 -8.3725,16.9062 -0.098,0.295 0.1675,0.6025 0.4388,0.6025 0.095,0 0.1912,-0.037 0.2725,-0.1262 4.3462,-4.6088 8.2762,-9.5925 12.63,-14.1988 -1.4563,4.3725 -3.8025,8.4325 -4.2213,13.105 -0.026,0.2625 0.2188,0.4775 0.46,0.4775 0.096,0 0.1925,-0.034 0.2688,-0.1137 4.2025,-4.335 7.2387,-9.625 11.3037,-14.0663 -1.125,3.8338 -2.4237,7.6175 -3.4462,11.4838 -0.074,0.26 0.081,0.5862 0.385,0.5862 0.001,0 0,0 0,0 4.36,-0.011 8.68,-0.59 13.015,-0.97 1.335,-0.1187 2.6425,-0.1712 3.9387,-0.1712 3.135,0 6.1988,0.3087 9.3888,0.7437 0.3187,0.043 0.615,0.065 0.8887,0.065 2.05,0 2.9525,-1.185 3.9363,-3.1337 1.2987,-2.5675 2.5725,-5.0838 4.0937,-7.5088 -0.4587,3.1375 -2.935,11.7488 -2.935,11.7488 0,0 6.295,1.3187 9.2175,1.49 0.01,0 0.018,0 0.026,0 0.195,0 0.345,-0.1225 0.42,-0.2963 0.7613,-1.78 1.1113,-3.67 1.6213,-5.5212 0.8587,2.7412 2.4075,8.5475 2.4075,8.5475 l 10.59,2.4475 c 0,0 0.5375,-0.08 0.5862,-0.3875 0.2763,-1.695 0.3325,-3.39 0.295,-5.0938 0.3475,2.8088 3.3188,6.4913 3.3188,6.4913 0,0 9.8412,0.9137 14.685,0.9137 0.06,0 0.12,0 0.1775,-0.001 0.24,0 0.4612,-0.16 0.4712,-0.4112 0.3563,-8.8438 -7.3825,-15.0975 -13.095,-20.8925 4.9563,0.215 9.2013,4.1125 12.5513,7.4225 0.098,0.096 0.2125,0.1375 0.3237,0.1375 0.2925,0 0.5575,-0.2875 0.4038,-0.625 -4.1488,-9.245 -13.2725,-14.2313 -22.9125,-15.7775 2.7775,-1.0138 5.5925,-1.715 8.4387,-2.12 l -4.6262,2.2375 0,0 c 0,0 14.09,1.585 26.0425,22.3212 l -6.7138,-2.4312 0,0 c 0,0 3.9963,6.685 7.0875,13.7637 0,0 -3.4925,-1.5737 -5.5137,-1.5737 l 0,0 c -10e-4,0 0,0 0,0 -0.4225,10e-4 -0.7813,0.07 -1.0288,0.2387 -0.01,0 -0.016,0.01 -0.024,0.016 l 0,0 c -1.3962,1.02 -10.5487,22.37881 -13.82,28.37377 -1.3337,2.4412 -3.7837,5.1037 -6.22,7.4025" />
    <path
       inkscape:connector-curvature="0"
       id="path1108"
       style="fill:#efc59a;fill-opacity:1;fill-rule:nonzero;stroke:none"
       d="m 239.36979,991.04483 c 0,0 -1.3575,-3.28 -3.0425,-3.6188 -1.6875,-0.3375 -5.645,1.2788 -6.48,6.07501 -0.825,4.7975 1.9588,8.36876 4.4488,9.24376 2.485,0.8712 3.8287,-2.2425 3.8287,-2.2425 l 1.245,-9.45747" />
    <path
       inkscape:connector-curvature="0"
       id="path1110"
       style="fill:#c08b58;fill-opacity:1;fill-rule:nonzero;stroke:none"
       d="m 235.08979,992.84983 c -2.2125,-1.1913 -3.1125,1.78751 -3.4525,3.72121 l 0.125,0.035 c 0.3225,-0.7412 0.61,-1.525 0.9738,-2.245 0.6225,-1.2275 1.7437,-0.9012 2.4237,-0.125 0.2588,0.2988 0.46,0.63 0.6275,0.9813 -0.4825,0.098 -0.9425,0.5425 -1.2525,0.9525 -0.4262,0.5612 -0.6637,1.2525 -0.83,1.95 l 0.1588,0.066 c 0.3175,-0.4713 0.5962,-0.9838 0.9325,-1.4375 0.3787,-0.5113 0.8037,-0.5963 1.29,-0.7775 0.3412,1.0862 0.4537,2.3062 0.6687,3.4212 0.036,0.205 0.3025,0.2175 0.3413,-0.017 0.3175,-2.2725 0.02,-5.4287 -2.0063,-6.52501" />
    <path
       inkscape:connector-curvature="0"
       id="path1112"
       style="fill:#efc59a;fill-opacity:1;fill-rule:nonzero;stroke:none"
       d="m 317.06479,997.22854 c 0,0 1.8475,-2.725 3.6013,-2.8325 1.7525,-0.11 5.5175,1.735 5.6562,6.02746 0.1388,4.2938 -3.2,7.1113 -5.8425,7.5988 -2.6412,0.4937 -3.5375,-2.3838 -3.5375,-2.3838 l 0.1225,-8.40996" />
    <path
       inkscape:connector-curvature="0"
       id="path1114"
       style="fill:#c08b58;fill-opacity:1;fill-rule:nonzero;stroke:none"
       d="m 321.12479,999.27984 c 2.4075,-0.8013 2.8788,1.90366 2.9438,3.63746 l -0.1263,0.013 c -0.225,-0.6813 -0.4,-1.4038 -0.6612,-2.07 -0.4525,-1.13746 -1.6288,-0.98126 -2.4275,-0.375 -0.3075,0.2287 -0.5588,0.5012 -0.7813,0.7912 0.4788,0.135 0.8763,0.5725 1.1263,0.9675 0.3487,0.545 0.49,1.1713 0.5562,1.8 l -0.1712,0.038 c -0.2538,-0.4462 -0.4563,-0.9212 -0.7325,-1.3625 -0.31,-0.4812 -0.725,-0.605 -1.1888,-0.8175 -0.505,0.9113 -0.7912,1.965 -1.1712,2.9175 -0.074,0.1813 -0.3425,0.1588 -0.345,-0.05 0.01,-2.025 0.7712,-4.7562 2.9787,-5.48866" />
    <path
       inkscape:connector-curvature="0"
       id="path1116"
       style="fill:#f4d6b7;fill-opacity:1;fill-rule:nonzero;stroke:none"
       d="m 241.19359,962.91983 c 0,0 -4.9638,8.0987 -2.6563,16.9 2.3113,8.7975 -1.7462,20.06751 -2.2587,24.46247 -0.51,4.4062 0.087,29.2812 36.7137,32.11 36.6263,2.8287 46.1863,-21.3825 45.4638,-34.0725 -0.7275,-12.68877 0.3912,-12.83377 1.2062,-18.54747 0.8125,-5.71 1.9575,-9.63 0.6838,-13.9263 l -0.8425,6.1563 c 0,0 -9.1163,-3.0338 -12.8738,-3.28 l -1.0225,-8.05 -1.1375,7.2425 -13.87,-1.5663 c 0,0 0.525,-4.625 1.9925,-6.7462 0,0 -3.2912,2.89 -4.1587,5.94 0,0 -25.8488,-1.4663 -30.38,0.015 0,0 0.01,-3.545 1.3187,-6.5663 0,0 -3.1212,3.57 -4.2587,7.4863 0,0 -11.6888,-0.9863 -13.82,1.0962 l -0.1,-8.6537" />
    <path
       inkscape:connector-curvature="0"
       id="path1118"
       style="fill:#8b181f;fill-opacity:1;fill-rule:nonzero;stroke:none"
       d="m 275.09979,1030.5085 c -4.37,0 -8.1887,-4.3862 -10.9987,-7.5737 1.7575,0.5162 3.5512,0.8062 4.8337,0.9962 1.8588,0.2763 3.87,0.4438 5.9213,0.4438 4.2312,0 8.6387,-0.71 12.275,-2.6313 -2.9888,2.925 -5.4688,6.525 -9.3513,8.1963 -0.9125,0.3937 -1.8075,0.5687 -2.68,0.5687" />
    <path
       inkscape:connector-curvature="0"
       id="path1120"
       style="fill:#f9c2bc;fill-opacity:1;fill-rule:nonzero;stroke:none"
       d="m 278.93979,1026.4423 c -3.7825,-1.2188 -7.9987,-1.27 -11.965,-0.38 3.0225,3.02 6.73,5.6375 10.805,3.8775 1.4013,-0.6038 2.615,-1.4613 3.7425,-2.4438 -0.8425,-0.4137 -1.6962,-0.7725 -2.5825,-1.0537" />
    <path
       inkscape:connector-curvature="0"
       id="path1122"
       style="fill:#f9c2bc;fill-opacity:1;fill-rule:nonzero;stroke:none"
       d="m 257.58479,1010.5885 c -0.1362,1.5588 -3.425,2.5 -7.3537,2.1013 -3.9238,-0.3975 -6.9975,-1.98 -6.865,-3.5413 0.1362,-1.5625 3.425,-2.505 7.3487,-2.105 3.9275,0.3988 7.0013,1.985 6.87,3.545" />
    <path
       inkscape:connector-curvature="0"
       id="path1124"
       style="fill:#f9c2bc;fill-opacity:1;fill-rule:nonzero;stroke:none"
       d="m 311.76479,1014.4635 c 0.2075,1.5525 -2.7912,3.19 -6.7075,3.6638 -3.92,0.4775 -7.265,-0.3975 -7.4775,-1.95 -0.2125,-1.55 2.79,-3.1938 6.7063,-3.6625 3.9162,-0.4725 7.2662,0.4012 7.4787,1.9487" />
    <path
       inkscape:connector-curvature="0"
       id="path1126"
       style="fill:#c08b58;fill-opacity:1;fill-rule:nonzero;stroke:none"
       d="m 277.77979,1029.9398 c -5.4862,2.3675 -10.3075,-3.1825 -13.6787,-7.005 1.7575,0.5162 3.5525,0.8062 4.8337,0.9962 5.6938,0.8488 12.7975,0.665 18.1963,-2.1875 -2.9888,2.925 -5.4688,6.525 -9.3513,8.1963 z m 15.5175,-11.0363 c -1.6987,0.02 -3.4837,-1.2 -4.45,-2.53 -0.1025,-0.1425 -0.3662,-0.054 -0.3012,0.1338 0.2787,0.795 0.7937,1.64 1.455,2.2562 -4.8625,4.6763 -12.1425,4.8413 -18.515,4.3813 -3.5625,-0.255 -12.9,-1.2513 -12.8838,-6.3338 0,-0.2112 -0.3362,-0.2587 -0.3725,-0.041 -0.5475,3.225 2.1825,4.9725 5.2338,5.9688 2.7925,4.0237 7.4175,9.5662 12.8975,8.51 2.6737,-0.5138 4.72,-2.1325 6.6112,-4.0125 2.51,-2.495 5.36,-5.02 7.5663,-7.7688 l 0.033,-0.155 0.065,-0.059 c 0.8212,0.5 1.7825,0.6238 2.7612,-0.01 0.1563,-0.096 0.089,-0.3487 -0.1,-0.3437" />
    <path
       inkscape:connector-curvature="0"
       id="path1128"
       style="fill:#c08b58;fill-opacity:1;fill-rule:nonzero;stroke:none"
       d="m 274.20609,1014.7235 c -1.3138,-0.2975 -2.495,-0.5625 -3.675,-1.25 -1.0613,-0.62 -2.275,-2.0112 -2.3013,-3.2912 -0.043,-2.1763 4.3213,-1.825 5.5363,-1.655 0.2887,0.038 0.4125,-0.2988 0.1812,-0.4625 -2.085,-1.4738 -6.0325,-1.1738 -6.975,1.52 -0.545,1.5712 0.915,3.2362 1.9625,4.1725 1.435,1.2837 3.42,1.3725 5.2413,1.2162 0.135,-0.011 0.1737,-0.215 0.03,-0.25" />
    <path
       inkscape:connector-curvature="0"
       id="path1130"
       style="fill:#563215;fill-opacity:1;fill-rule:nonzero;stroke:none"
       d="m 294.36979,990.95983 c -0.093,0 -0.1825,-0.064 -0.1912,-0.1838 -0.1888,-3.2162 1.9375,-7.5662 5.6312,-7.5662 0.1775,0 0.36,0.01 0.5463,0.03 3.1337,0.35 6.02,3.9275 5.0875,7.1437 -0.092,0.3238 -0.3325,0.4725 -0.5825,0.4725 -0.2575,0 -0.5238,-0.1587 -0.645,-0.4462 -0.855,-1.99 -1.1138,-5.5413 -4.0113,-5.5413 -0.115,0 -0.235,0.01 -0.36,0.017 -3.3887,0.3138 -4.4037,3.1288 -5.2875,5.935 -0.031,0.094 -0.11,0.1388 -0.1875,0.1388" />
    <path
       inkscape:connector-curvature="0"
       id="path1132"
       style="fill:#563215;fill-opacity:1;fill-rule:nonzero;stroke:none"
       d="m 258.21609,991.25483 c -0.079,0 -0.1613,-0.045 -0.1825,-0.1275 -0.53,-2.0225 -1.63,-3.9975 -3.62,-4.9363 -0.5475,-0.2587 -1.0275,-0.3725 -1.45,-0.3725 -1.9388,0 -2.7038,2.39 -3.4575,4.2913 -0.051,0.13 -0.17,0.1887 -0.295,0.1887 -0.1613,0 -0.3325,-0.099 -0.3713,-0.2625 -0.4612,-1.9087 -0.205,-3.705 1.43,-5 0.7675,-0.6112 1.6113,-0.9137 2.4938,-0.9137 0.5012,0 1.015,0.098 1.535,0.2912 2.415,0.9038 4.4237,4.1313 4.0825,6.7063 -0.014,0.093 -0.088,0.135 -0.165,0.135" />
    <path
       inkscape:connector-curvature="0"
       id="path1134"
       style="fill:#351a15;fill-opacity:1;fill-rule:nonzero;stroke:none"
       d="m 300.74609,997.13234 c -0.051,2.7687 -0.9325,5.02616 -1.9675,5.04366 -1.0375,0.01 -1.8438,-2.22246 -1.785,-4.99746 0.046,-2.77 0.93,-5.02871 1.9662,-5.03871 1.0375,-0.018 1.8375,2.22121 1.7863,4.99251" />
    <path
       inkscape:connector-curvature="0"
       id="path1136"
       style="fill:#ffffff;fill-opacity:1;fill-rule:nonzero;stroke:none"
       d="m 298.63479,995.05984 c -0.071,0.8375 -0.3887,1.4937 -0.6987,1.4687 -0.3125,-0.025 -0.5075,-0.7312 -0.4325,-1.5675 0.071,-0.835 0.3837,-1.4937 0.7012,-1.4675 0.3125,0.023 0.505,0.7288 0.43,1.5663" />
    <path
       inkscape:connector-curvature="0"
       id="path1138"
       style="fill:#351a15;fill-opacity:1;fill-rule:nonzero;stroke:none"
       d="m 255.35859,995.58354 c -0.3125,2.7488 -1.4013,4.90996 -2.435,4.82876 -1.035,-0.086 -1.6225,-2.38246 -1.3063,-5.14246 0.3088,-2.74751 1.405,-4.91501 2.435,-4.82881 1.035,0.084 1.6163,2.3863 1.3063,5.14251" />
    <path
       inkscape:connector-curvature="0"
       id="path1140"
       style="fill:#ffffff;fill-opacity:1;fill-rule:nonzero;stroke:none"
       d="m 253.45359,993.31734 c -0.1513,0.825 -0.53,1.455 -0.835,1.3975 -0.31,-0.059 -0.4338,-0.7725 -0.2825,-1.6025 0.1487,-0.82001 0.525,-1.45001 0.8325,-1.39001 0.3125,0.047 0.4387,0.7687 0.285,1.59501" />
    <path
       inkscape:connector-curvature="0"
       id="path1954"
       style="fill:#e2ad4e;fill-opacity:1;fill-rule:nonzero;stroke:none"
       d="m 213.86359,959.32853 c -0.036,-0.2362 -0.079,-0.4662 -0.13,-0.6875 0.051,0.2213 0.095,0.45 0.13,0.6875" />
    <path
       inkscape:connector-curvature="0"
       id="path7581"
       style="fill:#ffffff;fill-opacity:1;fill-rule:nonzero;stroke:none"
       d="m 724.23544,1842.7007 c 0.3525,0.082 -0.0263,0.1488 -0.0263,0.1488 l 0.0263,-0.1488" />
    <g
       id="g8066"
       transform="matrix(0.74199044,0,0,0.82887063,1027.0165,1641.1966)">
      <path
         d="m -1037.8662,-788.70927 c 0,0 5.4772,-7.76157 -13.8919,-7.04227 -15.2224,0.5652 -21.3146,22.34322 -25.8818,27.74228 -4.5671,5.39943 15.9915,19.13012 23.5559,19.24233 16.1127,0.23865 21.9486,-3.80597 18.0465,-8.78722"
         style="fill:#fbcb9d;fill-opacity:1;fill-rule:nonzero;stroke:none"
         id="path7563"
         inkscape:connector-curvature="0" />
      <path
         d="m -1071.5597,-775.43269 -21.3433,22.14797 13.5713,14.20311 20.2908,-13.76285 -12.5188,-22.58823"
         style="fill:#fbcb9d;fill-opacity:1;fill-rule:nonzero;stroke:none"
         id="path7565"
         inkscape:connector-curvature="0" />
      <path
         d="m -980.55966,-747.94551 c -0.20386,-3.08817 -0.56033,-6.43219 -1.03089,-9.92583 l 1.33499,0.2566 -0.54986,4.88623 0.24576,4.783"
         style="fill:#37a291;fill-opacity:1;fill-rule:nonzero;stroke:none"
         id="path7567"
         inkscape:connector-curvature="0" />
      <path
         d="m -980.46839,-746.1654 c 0,0 -9.33409,-2.37485 -12.99568,-4.19985 -6.66033,-3.31859 -1.31292,-10.03842 -1.31292,-10.03842 l 13.18644,2.53233 c 0.47056,3.49364 0.82703,6.83766 1.03089,9.92583 l 0.0913,1.78011"
         style="fill:#fab57c;fill-opacity:1;fill-rule:nonzero;stroke:none"
         id="path7569"
         inkscape:connector-curvature="0" />
      <path
         d="m -992.64564,-787.7487 c 0,0 -1.96938,-3.38293 -1.37576,-4.93524 0.54723,-1.43224 1.82724,-2.61163 3.53553,-3.49065 -0.0628,2.49492 -0.3056,5.27301 -0.78251,8.3608 l -1.37726,0.0651"
         style="fill:#faba83;fill-opacity:1;fill-rule:nonzero;stroke:none"
         id="path7571"
         inkscape:connector-curvature="0" />
      <path
         d="m -976.91977,-788.49382 c 0.12493,-1.0335 0.23865,-2.07074 0.33927,-3.11248 l -0.2263,3.10725 -0.11297,0.005 m 0.72379,-8.39184 c 0.003,-0.0752 0.007,-0.15074 0.0101,-0.22593 0.002,6e-4 0.004,10e-4 0.006,0.002 l -0.0161,0.22405"
         style="fill:#3da995;fill-opacity:1;fill-rule:nonzero;stroke:none"
         id="path7573"
         inkscape:connector-curvature="0" />
      <path
         d="m -991.26838,-787.81379 c 0.47691,-3.08779 0.71967,-5.86588 0.78251,-8.3608 2.26675,-1.16667 5.28909,-1.80442 8.35781,-1.80442 2.02885,0 4.07716,0.27867 5.94218,0.86742 -0.003,0.0752 -0.007,0.15075 -0.0101,0.22593 l -0.38453,5.27936 c -0.10062,1.04174 -0.21433,2.07898 -0.33926,3.11248 l -14.34862,0.68003"
         style="fill:#6b2926;fill-opacity:1;fill-rule:nonzero;stroke:none"
         id="path7575"
         inkscape:connector-curvature="0" />
      <path
         d="m -991.43334,-788.20916 c 0,0 -6.99738,-9.00342 13.54553,-7.94411 15.21304,0.78514 21.31457,22.34359 25.88211,27.74303 4.56717,5.39868 -15.99219,19.12974 -23.55626,19.24233 -16.11227,0.23864 -22.30731,-4.16132 -17.87368,-10.68852"
         style="fill:#fbcb9d;fill-opacity:1;fill-rule:nonzero;stroke:none"
         id="path7577"
         inkscape:connector-curvature="0" />
      <path
         d="m -957.09242,-774.3139 20.98803,18.03639 -14.20984,16.79416 -20.29043,-13.76247 13.51224,-21.06808"
         style="fill:#fbcb9d;fill-opacity:1;fill-rule:nonzero;stroke:none"
         id="path7579"
         inkscape:connector-curvature="0" />
      <path
         d="m -1025.5337,-762.94311 c 0,0 7.5139,-7.13727 12.7042,-7.13727 6.0997,0 12.7051,6.703 12.7051,6.703 l -0.7392,-20.98317 c 0,0 -6.1168,-4.07417 -11.9659,-4.07417 -7.6863,0 -12.2995,5.23635 -12.2995,5.23635 l -0.4047,20.25526"
         style="fill:#50463b;fill-opacity:1;fill-rule:nonzero;stroke:none"
         id="path7587"
         inkscape:connector-curvature="0" />
      <path
         d="m -1019.9353,-773.78387 c 0,5.41402 -3.2554,10.08032 -7.9007,12.16603 l 0,0.006 -8.2015,4.05734 c 5.2203,-3.02196 8.736,-8.67014 8.736,-15.11991 0,-7.65347 -4.9532,-14.1773 -11.8313,-16.52335 l 9.2178,2.50652 0,0.007 c 5.7286,1.49022 9.9797,6.7045 9.9797,12.90029"
         style="fill:#6b6760;fill-opacity:1;fill-rule:nonzero;stroke:none"
         id="path7589"
         inkscape:connector-curvature="0" />
      <path
         d="m -1027.3015,-772.67406 c 0,6.44977 -3.5157,12.09795 -8.736,15.11991 -0.6621,0.38752 -1.3503,0.72828 -2.0655,1.01555 l -0.02,0.0142 c -2.0453,0.84797 -4.2911,1.31628 -6.6443,1.31628 -9.6251,0 -17.4592,-7.83376 -17.4592,-17.46596 0,-9.62546 7.8341,-17.4596 17.4592,-17.4596 0.8824,0 1.7382,0.067 2.5802,0.19414 0.3008,0.0467 0.6082,0.10062 0.9022,0.16046 0.04,0.007 0.074,0.0131 0.1074,0.0198 0.6815,0.14027 1.3432,0.32094 1.9918,0.54163 l 0.053,0.0202 c 6.8781,2.34605 11.8313,8.86988 11.8313,16.52335"
         style="fill:#50463b;fill-opacity:1;fill-rule:nonzero;stroke:none"
         id="path7591"
         inkscape:connector-curvature="0" />
      <path
         d="m -1029.3068,-772.67106 c 0,8.53697 -6.9203,15.45805 -15.4569,15.45805 -8.5374,0 -15.4581,-6.92108 -15.4581,-15.45805 0,-8.53661 6.9207,-15.45731 15.4581,-15.45731 8.5366,0 15.4569,6.9207 15.4569,15.45731"
         style="fill:#c3ebe7;fill-opacity:1;fill-rule:nonzero;stroke:none"
         id="path7593"
         inkscape:connector-curvature="0" />
      <path
         d="m -1005.6335,-774.15455 c 0,5.41439 3.2554,10.07994 7.90038,12.16565 l 0,0.006 8.20183,4.05771 c -5.22026,-3.02158 -8.73634,-8.66976 -8.73634,-15.11991 0,-7.65384 4.95318,-14.1773 11.83162,-16.52335 l -9.21775,2.50652 0,0.006 c -5.72864,1.49059 -9.97974,6.7045 -9.97974,12.90066"
         style="fill:#6b6760;fill-opacity:1;fill-rule:nonzero;stroke:none"
         id="path7595"
         inkscape:connector-curvature="0" />
      <path
         d="m -998.26763,-773.04474 c 0,6.45014 3.51608,12.09832 8.73634,15.11991 0.66207,0.38826 1.34958,0.72865 2.06551,1.01555 l 0.0202,0.0142 c 2.04569,0.84835 4.29112,1.31629 6.64428,1.31629 9.62472,0 17.45885,-7.83339 17.45885,-17.46596 0,-9.62584 -7.83413,-17.4596 -17.45885,-17.4596 -0.88314,0 -1.73822,0.0666 -2.58021,0.19413 -0.30111,0.0468 -0.60821,0.10025 -0.90258,0.16009 -0.04,0.007 -0.0733,0.0135 -0.10698,0.0198 -0.68152,0.14027 -1.34397,0.32131 -1.9922,0.542 l -0.0527,0.0202 c -6.87844,2.34605 -11.83162,8.86951 -11.83162,16.52335"
         style="fill:#50463b;fill-opacity:1;fill-rule:nonzero;stroke:none"
         id="path7597"
         inkscape:connector-curvature="0" />
      <path
         d="m -996.26234,-773.04137 c 0,8.5366 6.92032,15.4573 15.45767,15.4573 8.53661,0 15.45768,-6.9207 15.45768,-15.4573 0,-8.53661 -6.92107,-15.45768 -15.45768,-15.45768 -8.53735,0 -15.45767,6.92107 -15.45767,15.45768"
         style="fill:#c3ebe7;fill-opacity:1;fill-rule:nonzero;stroke:none"
         id="path7599"
         inkscape:connector-curvature="0" />
      <path
         d="m -1009.2543,-783.32368 c 0,1.82238 -1.4771,3.30026 -3.2999,3.30026 -1.8227,0 -3.3002,-1.47788 -3.3002,-3.30026 0,-1.82237 1.4775,-3.30063 3.3002,-3.30063 1.8228,0 3.2999,1.47826 3.2999,3.30063"
         style="fill:#6b6760;fill-opacity:1;fill-rule:nonzero;stroke:none"
         id="path7601"
         inkscape:connector-curvature="0" />
      <path
         d="m -1043.027,-786.62431 c 0,0 9.4048,1.87475 11.1905,11.1905 0.3232,1.68735 -1.4674,3.26622 -2.5035,0 -1.1536,-3.63727 -4.4303,-7.43839 -8.7435,-8.90355 -3.4166,-1.16068 -3.145,-2.76536 0.056,-2.28695"
         style="fill:#ffffff;fill-opacity:1;fill-rule:nonzero;stroke:none"
         id="path7603"
         inkscape:connector-curvature="0" />
      <path
         d="m -978.29366,-786.62431 c 0,0 9.4044,1.87475 11.1905,11.1905 0.32318,1.68735 -1.46741,3.26622 -2.5039,0 -1.1532,-3.63727 -4.42989,-7.43839 -8.74346,-8.90355 -3.41658,-1.16068 -3.14502,-2.76536 0.0569,-2.28695"
         style="fill:#ffffff;fill-opacity:1;fill-rule:nonzero;stroke:none"
         id="path7605"
         inkscape:connector-curvature="0" />
      <path
         d="m -990.78885,-765.40062 c 0,0 1.1719,4.42839 5.66688,5.00443 0.81319,0.10399 1.85791,-1.43374 0.33403,-2.03147 -1.91477,-0.75147 -2.91723,-1.09448 -3.74388,-3.10725 -0.65384,-1.59458 -2.57909,-1.37763 -2.25703,0.13429"
         style="fill:#ffffff;fill-opacity:1;fill-rule:nonzero;stroke:none"
         id="path7607"
         inkscape:connector-curvature="0" />
      <path
         d="m -1056.1686,-765.40062 c 0,0 1.1716,4.42839 5.6662,5.00443 0.8139,0.10399 1.8579,-1.43374 0.3344,-2.03147 -1.9148,-0.75147 -2.9176,-1.09448 -3.7435,-3.10725 -0.6546,-1.59458 -2.5795,-1.37763 -2.2571,0.13429"
         style="fill:#ffffff;fill-opacity:1;fill-rule:nonzero;stroke:none"
         id="path7609"
         inkscape:connector-curvature="0" />
      <path
         d="m -966.95317,-717.7027 c 0.81394,0.4051 -2.02885,-0.591 0,0 5.8988,1.7169 37.60377,8.49059 53.19125,15.0926 -4.08465,-2.57459 -9.10928,-6.80474 -9.10928,-6.80474 l -44.08197,-8.28786"
         style="fill:#f3f2f0;fill-opacity:1;fill-rule:nonzero;stroke:none"
         id="path7613"
         inkscape:connector-curvature="0" />
      <path
         d="m -1104.2592,-710.4173 c 0.2513,-0.23603 0.5509,-0.51881 0.8883,-0.83862 l 0,7.4e-4 c 0,0 21.7144,-13.95698 22.5893,-20.41797 0.059,-0.4354 0.067,-0.88388 0.038,-1.33985 6.4797,-6.25452 11.7052,-11.30833 11.7052,-11.30833 l -16.6004,-18.62028 c 0,0 -5.7481,4.39772 -13.648,10.73677 -0.3116,-0.10847 -0.6183,-0.20834 -0.9135,-0.28839 -6.7965,-1.85268 -37.0085,33.59543 -37.0085,33.59543 l 0.014,0.003 c -1.4348,1.51715 -2.7069,2.94753 -3.7662,4.25783 -4.1705,5.16191 -8.8165,15.04809 -5.0571,23.41188 3.7815,8.41616 16.0728,15.29123 45.9222,14.26633 19.4021,-0.66956 29.8419,-0.94261 35.4414,-1.03239 0.4713,-0.007 0.9089,-0.015 1.3167,-0.0224 3.8901,-0.0486 4.8402,0.007 5.031,0.0524 l 7.8663,-42.57454 -9.7403,1.82911 -44.082,8.28898"
         style="fill:#ffff00;fill-opacity:1;fill-rule:nonzero;stroke:none"
         id="path7615"
         inkscape:connector-curvature="0" />
      <path
         d="m -886.17413,-713.63377 c -1.05931,-1.3103 -2.33146,-2.74067 -3.76632,-4.2582 l 0.0142,-0.003 c 0,0 -30.21251,-35.44811 -37.00865,-33.59581 -0.29476,0.0804 -0.60073,0.17992 -0.91157,0.28839 -7.90034,-6.34017 -13.64876,-10.73827 -13.64876,-10.73827 l -16.59966,18.62028 c 0,0 5.22475,5.05344 11.70332,11.30758 -0.0292,0.45672 -0.0217,0.90558 0.0374,1.3421 0.87565,6.46136 22.59009,20.41797 22.59009,20.41797 l 0.004,-10e-4 c 0.33777,0.32018 0.63701,0.60297 0.88837,0.83899 l -44.08197,-8.28786 -10.35524,-1.80966 8.48012,42.55584 c 0.4455,-0.10511 5.06503,-0.26745 41.79128,0.99984 59.51159,2.04868 49.23153,-27.32035 40.86288,-37.67708"
         style="fill:#ffff00;fill-opacity:1;fill-rule:nonzero;stroke:none"
         id="path7617"
         inkscape:connector-curvature="0" />
    </g>
    <path
       d="m 241.49859,1114.9948 c 0,0 -1.1938,-61.0988 -0.4425,-66.9713 l 35.6962,-8.25 35.6963,8.25 c 0.7462,5.8725 -0.445,66.9713 -0.445,66.9713 0,2.4262 2.0337,26.6325 0.3975,29.9725 l -0.026,0.065 -0.044,0.06 -0.1025,0.13 -0.084,0.07 c -2.1013,1.8037 -15.7863,3.2137 -32.6413,3.305 l 0,0 c -0.1362,0 -2.175,10e-4 -2.7512,10e-4 -0.5763,0 -2.6175,-10e-4 -2.7513,-10e-4 l 0,-0 c -16.8562,-0.091 -30.54,-1.5013 -32.6462,-3.305 l -0.081,-0.07 -0.1025,-0.13 -0.041,-0.06 -0.028,-0.065 c -1.64,-3.34 0.3962,-27.5463 0.3962,-29.9725"
       style="fill:#42753b;fill-opacity:1;fill-rule:nonzero;stroke:none"
       id="path8276"
       inkscape:connector-curvature="0" />
    <path
       d="m 241.21979,1098.8898 71.065,0 c -0.1487,9.2912 -0.2812,16.105 -0.2812,16.105 0,2.4262 2.0337,26.6325 0.3975,29.9725 l -0.026,0.065 -0.044,0.06 -0.1025,0.13 -0.084,0.07 c -2.1013,1.8037 -15.7863,3.2137 -32.6413,3.305 l 0,0 c -0.1362,0 -2.175,10e-4 -2.7512,10e-4 -0.5763,0 -2.6175,-10e-4 -2.7513,-10e-4 l 0,-0 c -16.8562,-0.091 -30.54,-1.5013 -32.6462,-3.305 l -0.081,-0.07 -0.1025,-0.13 -0.041,-0.06 -0.028,-0.065 c -1.64,-3.34 0.3962,-27.5463 0.3962,-29.9725 0,0 -0.135,-6.8138 -0.2787,-16.105"
       style="fill:#31623d;fill-opacity:1;fill-rule:nonzero;stroke:none"
       id="path8278"
       inkscape:connector-curvature="0" />
    <path
       d="m 301.95729,1045.5985 c 0,2.1138 -18.5425,15.7363 -25.31,15.7363 -6.765,0 -25.2437,-13.5875 -25.2437,-15.7013 0,0 9.3775,-7.4762 25.2775,-7.4375 17.2262,0.04 25.2762,7.4025 25.2762,7.4025"
       style="fill:#96d021;fill-opacity:1;fill-rule:nonzero;stroke:none"
       id="path8280"
       inkscape:connector-curvature="0" />
    <path
       d="m 267.30859,1047.7435 c 0,1.9725 4.7212,11.23 9.4412,11.23 4.7213,0 9.4413,-9.2575 9.4413,-11.23 l 0,-17.6162 c 0,-3.9413 -3.1938,-7.1375 -7.1375,-7.1375 l -4.6088,0 c -3.9375,0 -7.1362,3.1962 -7.1362,7.1375 l 0,17.6162"
       style="fill:#dfae7c;fill-opacity:1;fill-rule:nonzero;stroke:none"
       id="path8282"
       inkscape:connector-curvature="0" />
    <path
       d="m 283.94229,1104.6535 c 0.2925,0 0.525,-0.2375 0.525,-0.5275 0,-1.2512 -0.064,-30.7987 -5.8275,-43.5887 -0.1175,-0.265 -0.43,-0.3825 -0.6962,-0.2638 -0.2638,0.1188 -0.3813,0.4313 -0.2638,0.6938 5.6713,12.5862 5.7375,42.855 5.7375,43.1587 0,0.29 0.2363,0.5275 0.525,0.5275"
       style="fill:#a71a35;fill-opacity:1;fill-rule:nonzero;stroke:none"
       id="path8284"
       inkscape:connector-curvature="0" />
    <path
       d="m 271.08609,1104.586 c 0.2875,0 0.525,-0.2337 0.525,-0.525 0,-0.3037 0.065,-30.5712 5.7362,-43.1562 0.12,-0.265 0,-0.5775 -0.2625,-0.6975 -0.2637,-0.1213 -0.5762,-10e-4 -0.6962,0.2662 -5.7638,12.79 -5.83,42.3363 -5.83,43.5875 0,0.2913 0.2337,0.525 0.5275,0.525"
       style="fill:#a71a35;fill-opacity:1;fill-rule:nonzero;stroke:none"
       id="path8286"
       inkscape:connector-curvature="0" />
    <path
       d="m 284.17859,1103.9735 c 0.2937,0 0.5275,-0.235 0.5275,-0.5262 0,-1.25 -0.069,-30.7975 -5.83,-43.5888 -0.12,-0.265 -0.43,-0.3825 -0.6963,-0.265 -0.265,0.12 -0.3825,0.4313 -0.2625,0.6963 5.6713,12.585 5.7363,42.8537 5.7363,43.1575 0,0.2912 0.235,0.5262 0.525,0.5262"
       style="fill:#96d021;fill-opacity:1;fill-rule:nonzero;stroke:none"
       id="path8288"
       inkscape:connector-curvature="0" />
    <path
       d="m 270.86609,1103.9735 c 0.2875,0 0.525,-0.235 0.525,-0.5262 0,-0.3038 0.066,-30.5725 5.7375,-43.1575 0.1162,-0.265 0,-0.5763 -0.2613,-0.6963 -0.2687,-0.1212 -0.5762,-10e-4 -0.6987,0.265 -5.7638,12.7913 -5.8275,42.3388 -5.8275,43.5888 0,0.2912 0.2325,0.5262 0.525,0.5262"
       style="fill:#96d021;fill-opacity:1;fill-rule:nonzero;stroke:none"
       id="path8290"
       inkscape:connector-curvature="0" />
    <path
       d="m 238.03609,1007.9473 c 0,0 -1.3113,-10.50626 -4.5013,-19.36247 -3.1962,-8.8563 -5.74,-17.45 -7.2125,-18.6538 -1.475,-1.2075 -5.095,-0.1075 -5.095,-0.1075 l 5.5125,-6.2962 c 0,0 -4.0037,0.1837 -5.1387,0.55 0,0 9.0137,-15.8213 19.9137,-19.7675 l -6.9425,1.1 c 0,0 7.2063,-11.945 25.11,-17.8738 17.905,-5.935 43.3563,-5.165 51.1913,7.325 l 1.1662,-7.69 c 0,0 1.6,6.0938 1.2675,11.1713 0,0 5.3513,-3.865 11.8488,-1.4438 l -6.8713,3.32 c 0,0 14.09,1.585 26.0425,22.3213 l -6.7137,-2.4313 c 0,0 3.9962,6.685 7.0875,13.7638 0,0 -5.1738,-2.33 -6.57,-1.3188 -1.3963,1.02 -10.5488,22.37881 -13.82,28.37377 -3.2738,5.995 -13.2863,13.3262 -13.2863,13.3262 l -72.9887,-6.3062"
       style="fill:#5b3b17;fill-opacity:1;fill-rule:nonzero;stroke:none"
       id="path8292"
       inkscape:connector-curvature="0" />
    <g
       transform="matrix(0.125,0,0,-0.125,-696.58771,1344.2298)"
       id="g8294">
      <g
         id="g8296"
         clip-path="url(#clipPath1100)">
        <path
           d="m 7342.52,2962.86 987.793,0 0,227.715 -987.793,0 0,-227.715 z"
           style="fill:#ac9d79;fill-opacity:1;fill-rule:nonzero;stroke:none"
           id="path8298"
           inkscape:connector-curvature="0" />
      </g>
    </g>
    <path
       d="m 318.09109,1008.3298 c 0.3625,-2.1625 0.4675,-4.2025 0.365,-6.01 -0.7275,-12.68877 0.3912,-12.83377 1.2062,-18.54747 0.8125,-5.71 1.9575,-9.63 0.6838,-13.9263 l -0.8425,6.1563 c 0,0 -9.1163,-3.0338 -12.8738,-3.28 l -1.0225,-8.05 -1.1375,7.2425 -13.87,-1.5663 c 0,0 0.525,-4.625 1.9925,-6.7462 0,0 -3.2912,2.89 -4.1587,5.94 0,0 -11.4125,-0.6475 -20.4013,-0.6475 -4.5387,0 -8.4587,0.165 -9.9787,0.6625 0,0 0.01,-3.545 1.3187,-6.5663 0,0 -3.1212,3.57 -4.2587,7.4863 0,0 -2.7663,-0.2338 -5.8538,-0.2338 -3.2575,0 -6.8725,0.2613 -7.9662,1.33 l -0.1,-8.6537 c 0,0 -4.9638,8.0987 -2.6563,16.9 1.8725,7.1262 -0.435,15.87621 -1.6512,21.27997 -0.7288,-3.66246 -1.825,-8.27747 -3.3513,-12.51497 -3.1962,-8.8563 -5.74,-17.45 -7.2125,-18.6538 l 0,0 c -0.52,-0.4262 -1.3087,-0.565 -2.11,-0.5662 0,0 -0.01,0 -0.01,0 l 0,0 c -0.01,0 -0.013,0 -0.018,0 -1.4612,0 -2.9587,0.4587 -2.9587,0.4587 l 5.5125,-6.2962 0,0 c 0,0 -4.0038,0.1837 -5.1388,0.55 0,0 9.0138,-15.8213 19.9138,-19.7675 l 0,0 -6.9425,1.1 0,0 c 0,0 0,0 0,0 0,0 0,0 0,0 l 10e-4,0 c 0.059,-0.099 3.0437,-4.97 9.8325,-10.0125 -2.0388,1.84 -3.9288,3.8325 -5.5275,6.0787 -0.2088,0.2938 0.035,0.6938 0.3637,0.6938 0.03,0 0.06,0 0.09,-0.01 6.3438,-1.4113 12.3,-4.1125 18.4963,-5.9788 -9.7213,4.2188 -18.42,11.2163 -24.7575,19.5538 -0.2388,0.3125 0.058,0.6825 0.3862,0.6825 0.06,0 0.1213,-0.013 0.18,-0.039 6.1938,-2.8438 12.0625,-6.3288 17.7,-10.15 -3.7525,5.0837 -6.3775,10.9262 -8.3725,16.9062 -0.098,0.295 0.1675,0.6025 0.4388,0.6025 0.095,0 0.1912,-0.037 0.2725,-0.1262 4.3462,-4.6088 8.2762,-9.5925 12.63,-14.1988 -1.4563,4.3725 -3.8025,8.4325 -4.2213,13.105 -0.026,0.2625 0.2188,0.4775 0.46,0.4775 0.096,0 0.1925,-0.034 0.2688,-0.1137 4.2025,-4.335 7.2387,-9.625 11.3037,-14.0663 -1.125,3.8338 -2.4237,7.6175 -3.4462,11.4838 -0.074,0.26 0.081,0.5862 0.385,0.5862 0.001,0 0,0 0,0 4.36,-0.011 8.68,-0.59 13.015,-0.97 1.335,-0.1187 2.6425,-0.1712 3.9387,-0.1712 3.135,0 6.1988,0.3087 9.3888,0.7437 0.3187,0.043 0.615,0.065 0.8887,0.065 2.05,0 2.9525,-1.185 3.9363,-3.1337 1.2987,-2.5675 2.5725,-5.0838 4.0937,-7.5088 -0.4587,3.1375 -2.935,11.7488 -2.935,11.7488 0,0 6.295,1.3187 9.2175,1.49 0.01,0 0.018,0 0.026,0 0.195,0 0.345,-0.1225 0.42,-0.2963 0.7613,-1.78 1.1113,-3.67 1.6213,-5.5212 0.8587,2.7412 2.4075,8.5475 2.4075,8.5475 l 10.59,2.4475 c 0,0 0.5375,-0.08 0.5862,-0.3875 0.2763,-1.695 0.3325,-3.39 0.295,-5.0938 0.3475,2.8088 3.3188,6.4913 3.3188,6.4913 0,0 9.8412,0.9137 14.685,0.9137 0.06,0 0.12,0 0.1775,-0.001 0.24,0 0.4612,-0.16 0.4712,-0.4112 0.3563,-8.8438 -7.3825,-15.0975 -13.095,-20.8925 4.9563,0.215 9.2013,4.1125 12.5513,7.4225 0.098,0.096 0.2125,0.1375 0.3237,0.1375 0.2925,0 0.5575,-0.2875 0.4038,-0.625 -4.1488,-9.245 -13.2725,-14.2313 -22.9125,-15.7775 2.7775,-1.0138 5.5925,-1.715 8.4387,-2.12 l -4.6262,2.2375 0,0 c 0,0 14.09,1.585 26.0425,22.3212 l -6.7138,-2.4312 0,0 c 0,0 3.9963,6.685 7.0875,13.7637 0,0 -3.4925,-1.5737 -5.5137,-1.5737 l 0,0 c -10e-4,0 0,0 0,0 -0.4225,10e-4 -0.7813,0.07 -1.0288,0.2387 -0.01,0 -0.016,0.01 -0.024,0.016 l 0,0 c -1.3962,1.02 -10.5487,22.37881 -13.82,28.37377 -1.3337,2.4412 -3.7837,5.1037 -6.22,7.4025"
       style="fill:#3b2515;fill-opacity:1;fill-rule:nonzero;stroke:none"
       id="path8300"
       inkscape:connector-curvature="0" />
    <path
       d="m 239.36979,991.04483 c 0,0 -1.3575,-3.28 -3.0425,-3.6188 -1.6875,-0.3375 -5.645,1.2788 -6.48,6.07501 -0.825,4.7975 1.9588,8.36876 4.4488,9.24376 2.485,0.8712 3.8287,-2.2425 3.8287,-2.2425 l 1.245,-9.45747"
       style="fill:#efc59a;fill-opacity:1;fill-rule:nonzero;stroke:none"
       id="path8302"
       inkscape:connector-curvature="0" />
    <path
       d="m 235.08979,992.84983 c -2.2125,-1.1913 -3.1125,1.78751 -3.4525,3.72121 l 0.125,0.035 c 0.3225,-0.7412 0.61,-1.525 0.9738,-2.245 0.6225,-1.2275 1.7437,-0.9012 2.4237,-0.125 0.2588,0.2988 0.46,0.63 0.6275,0.9813 -0.4825,0.098 -0.9425,0.5425 -1.2525,0.9525 -0.4262,0.5612 -0.6637,1.2525 -0.83,1.95 l 0.1588,0.066 c 0.3175,-0.4713 0.5962,-0.9838 0.9325,-1.4375 0.3787,-0.5113 0.8037,-0.5963 1.29,-0.7775 0.3412,1.0862 0.4537,2.3062 0.6687,3.4212 0.036,0.205 0.3025,0.2175 0.3413,-0.017 0.3175,-2.2725 0.02,-5.4287 -2.0063,-6.52501"
       style="fill:#c08b58;fill-opacity:1;fill-rule:nonzero;stroke:none"
       id="path8304"
       inkscape:connector-curvature="0" />
    <path
       d="m 317.06479,997.22854 c 0,0 1.8475,-2.725 3.6013,-2.8325 1.7525,-0.11 5.5175,1.735 5.6562,6.02746 0.1388,4.2938 -3.2,7.1113 -5.8425,7.5988 -2.6412,0.4937 -3.5375,-2.3838 -3.5375,-2.3838 l 0.1225,-8.40996"
       style="fill:#efc59a;fill-opacity:1;fill-rule:nonzero;stroke:none"
       id="path8306"
       inkscape:connector-curvature="0" />
    <path
       d="m 321.12479,999.27984 c 2.4075,-0.8013 2.8788,1.90366 2.9438,3.63746 l -0.1263,0.013 c -0.225,-0.6813 -0.4,-1.4038 -0.6612,-2.07 -0.4525,-1.13746 -1.6288,-0.98126 -2.4275,-0.375 -0.3075,0.2287 -0.5588,0.5012 -0.7813,0.7912 0.4788,0.135 0.8763,0.5725 1.1263,0.9675 0.3487,0.545 0.49,1.1713 0.5562,1.8 l -0.1712,0.038 c -0.2538,-0.4462 -0.4563,-0.9212 -0.7325,-1.3625 -0.31,-0.4812 -0.725,-0.605 -1.1888,-0.8175 -0.505,0.9113 -0.7912,1.965 -1.1712,2.9175 -0.074,0.1813 -0.3425,0.1588 -0.345,-0.05 0.01,-2.025 0.7712,-4.7562 2.9787,-5.48866"
       style="fill:#c08b58;fill-opacity:1;fill-rule:nonzero;stroke:none"
       id="path8308"
       inkscape:connector-curvature="0" />
    <path
       d="m 241.19359,962.91983 c 0,0 -4.9638,8.0987 -2.6563,16.9 2.3113,8.7975 -1.7462,20.06751 -2.2587,24.46247 -0.51,4.4062 0.087,29.2812 36.7137,32.11 36.6263,2.8287 46.1863,-21.3825 45.4638,-34.0725 -0.7275,-12.68877 0.3912,-12.83377 1.2062,-18.54747 0.8125,-5.71 1.9575,-9.63 0.6838,-13.9263 l -0.8425,6.1563 c 0,0 -9.1163,-3.0338 -12.8738,-3.28 l -1.0225,-8.05 -1.1375,7.2425 -13.87,-1.5663 c 0,0 0.525,-4.625 1.9925,-6.7462 0,0 -3.2912,2.89 -4.1587,5.94 0,0 -25.8488,-1.4663 -30.38,0.015 0,0 0.01,-3.545 1.3187,-6.5663 0,0 -3.1212,3.57 -4.2587,7.4863 0,0 -11.6888,-0.9863 -13.82,1.0962 l -0.1,-8.6537"
       style="fill:#f4d6b7;fill-opacity:1;fill-rule:nonzero;stroke:none"
       id="path8310"
       inkscape:connector-curvature="0" />
    <path
       d="m 275.09979,1030.5085 c -4.37,0 -8.1887,-4.3862 -10.9987,-7.5737 1.7575,0.5162 3.5512,0.8062 4.8337,0.9962 1.8588,0.2763 3.87,0.4438 5.9213,0.4438 4.2312,0 8.6387,-0.71 12.275,-2.6313 -2.9888,2.925 -5.4688,6.525 -9.3513,8.1963 -0.9125,0.3937 -1.8075,0.5687 -2.68,0.5687"
       style="fill:#8b181f;fill-opacity:1;fill-rule:nonzero;stroke:none"
       id="path8312"
       inkscape:connector-curvature="0" />
    <path
       d="m 278.93979,1026.4423 c -3.7825,-1.2188 -7.9987,-1.27 -11.965,-0.38 3.0225,3.02 6.73,5.6375 10.805,3.8775 1.4013,-0.6038 2.615,-1.4613 3.7425,-2.4438 -0.8425,-0.4137 -1.6962,-0.7725 -2.5825,-1.0537"
       style="fill:#f9c2bc;fill-opacity:1;fill-rule:nonzero;stroke:none"
       id="path8314"
       inkscape:connector-curvature="0" />
    <path
       d="m 257.58479,1010.5885 c -0.1362,1.5588 -3.425,2.5 -7.3537,2.1013 -3.9238,-0.3975 -6.9975,-1.98 -6.865,-3.5413 0.1362,-1.5625 3.425,-2.505 7.3487,-2.105 3.9275,0.3988 7.0013,1.985 6.87,3.545"
       style="fill:#f9c2bc;fill-opacity:1;fill-rule:nonzero;stroke:none"
       id="path8316"
       inkscape:connector-curvature="0" />
    <path
       d="m 311.76479,1014.4635 c 0.2075,1.5525 -2.7912,3.19 -6.7075,3.6638 -3.92,0.4775 -7.265,-0.3975 -7.4775,-1.95 -0.2125,-1.55 2.79,-3.1938 6.7063,-3.6625 3.9162,-0.4725 7.2662,0.4012 7.4787,1.9487"
       style="fill:#f9c2bc;fill-opacity:1;fill-rule:nonzero;stroke:none"
       id="path8318"
       inkscape:connector-curvature="0" />
    <path
       d="m 277.77979,1029.9398 c -5.4862,2.3675 -10.3075,-3.1825 -13.6787,-7.005 1.7575,0.5162 3.5525,0.8062 4.8337,0.9962 5.6938,0.8488 12.7975,0.665 18.1963,-2.1875 -2.9888,2.925 -5.4688,6.525 -9.3513,8.1963 z m 15.5175,-11.0363 c -1.6987,0.02 -3.4837,-1.2 -4.45,-2.53 -0.1025,-0.1425 -0.3662,-0.054 -0.3012,0.1338 0.2787,0.795 0.7937,1.64 1.455,2.2562 -4.8625,4.6763 -12.1425,4.8413 -18.515,4.3813 -3.5625,-0.255 -12.9,-1.2513 -12.8838,-6.3338 0,-0.2112 -0.3362,-0.2587 -0.3725,-0.041 -0.5475,3.225 2.1825,4.9725 5.2338,5.9688 2.7925,4.0237 7.4175,9.5662 12.8975,8.51 2.6737,-0.5138 4.72,-2.1325 6.6112,-4.0125 2.51,-2.495 5.36,-5.02 7.5663,-7.7688 l 0.033,-0.155 0.065,-0.059 c 0.8212,0.5 1.7825,0.6238 2.7612,-0.01 0.1563,-0.096 0.089,-0.3487 -0.1,-0.3437"
       style="fill:#c08b58;fill-opacity:1;fill-rule:nonzero;stroke:none"
       id="path8320"
       inkscape:connector-curvature="0" />
    <path
       d="m 274.20609,1014.7235 c -1.3138,-0.2975 -2.495,-0.5625 -3.675,-1.25 -1.0613,-0.62 -2.275,-2.0112 -2.3013,-3.2912 -0.043,-2.1763 4.3213,-1.825 5.5363,-1.655 0.2887,0.038 0.4125,-0.2988 0.1812,-0.4625 -2.085,-1.4738 -6.0325,-1.1738 -6.975,1.52 -0.545,1.5712 0.915,3.2362 1.9625,4.1725 1.435,1.2837 3.42,1.3725 5.2413,1.2162 0.135,-0.011 0.1737,-0.215 0.03,-0.25"
       style="fill:#c08b58;fill-opacity:1;fill-rule:nonzero;stroke:none"
       id="path8322"
       inkscape:connector-curvature="0" />
    <path
       d="m 294.36979,990.95983 c -0.093,0 -0.1825,-0.064 -0.1912,-0.1838 -0.1888,-3.2162 1.9375,-7.5662 5.6312,-7.5662 0.1775,0 0.36,0.01 0.5463,0.03 3.1337,0.35 6.02,3.9275 5.0875,7.1437 -0.092,0.3238 -0.3325,0.4725 -0.5825,0.4725 -0.2575,0 -0.5238,-0.1587 -0.645,-0.4462 -0.855,-1.99 -1.1138,-5.5413 -4.0113,-5.5413 -0.115,0 -0.235,0.01 -0.36,0.017 -3.3887,0.3138 -4.4037,3.1288 -5.2875,5.935 -0.031,0.094 -0.11,0.1388 -0.1875,0.1388"
       style="fill:#563215;fill-opacity:1;fill-rule:nonzero;stroke:none"
       id="path8324"
       inkscape:connector-curvature="0" />
    <path
       d="m 258.21609,991.25483 c -0.079,0 -0.1613,-0.045 -0.1825,-0.1275 -0.53,-2.0225 -1.63,-3.9975 -3.62,-4.9363 -0.5475,-0.2587 -1.0275,-0.3725 -1.45,-0.3725 -1.9388,0 -2.7038,2.39 -3.4575,4.2913 -0.051,0.13 -0.17,0.1887 -0.295,0.1887 -0.1613,0 -0.3325,-0.099 -0.3713,-0.2625 -0.4612,-1.9087 -0.205,-3.705 1.43,-5 0.7675,-0.6112 1.6113,-0.9137 2.4938,-0.9137 0.5012,0 1.015,0.098 1.535,0.2912 2.415,0.9038 4.4237,4.1313 4.0825,6.7063 -0.014,0.093 -0.088,0.135 -0.165,0.135"
       style="fill:#563215;fill-opacity:1;fill-rule:nonzero;stroke:none"
       id="path8326"
       inkscape:connector-curvature="0" />
    <path
       d="m 300.74609,997.13234 c -0.051,2.7687 -0.9325,5.02616 -1.9675,5.04366 -1.0375,0.01 -1.8438,-2.22246 -1.785,-4.99746 0.046,-2.77 0.93,-5.02871 1.9662,-5.03871 1.0375,-0.018 1.8375,2.22121 1.7863,4.99251"
       style="fill:#351a15;fill-opacity:1;fill-rule:nonzero;stroke:none"
       id="path8328"
       inkscape:connector-curvature="0" />
    <path
       d="m 298.63479,995.05984 c -0.071,0.8375 -0.3887,1.4937 -0.6987,1.4687 -0.3125,-0.025 -0.5075,-0.7312 -0.4325,-1.5675 0.071,-0.835 0.3837,-1.4937 0.7012,-1.4675 0.3125,0.023 0.505,0.7288 0.43,1.5663"
       style="fill:#ffffff;fill-opacity:1;fill-rule:nonzero;stroke:none"
       id="path8330"
       inkscape:connector-curvature="0" />
    <path
       d="m 255.35859,995.58354 c -0.3125,2.7488 -1.4013,4.90996 -2.435,4.82876 -1.035,-0.086 -1.6225,-2.38246 -1.3063,-5.14246 0.3088,-2.74751 1.405,-4.91501 2.435,-4.82881 1.035,0.084 1.6163,2.3863 1.3063,5.14251"
       style="fill:#351a15;fill-opacity:1;fill-rule:nonzero;stroke:none"
       id="path8332"
       inkscape:connector-curvature="0" />
    <path
       d="m 253.45359,993.31734 c -0.1513,0.825 -0.53,1.455 -0.835,1.3975 -0.31,-0.059 -0.4338,-0.7725 -0.2825,-1.6025 0.1487,-0.82001 0.525,-1.45001 0.8325,-1.39001 0.3125,0.047 0.4387,0.7687 0.285,1.59501"
       style="fill:#ffffff;fill-opacity:1;fill-rule:nonzero;stroke:none"
       id="path8334"
       inkscape:connector-curvature="0" />
    <path
       d="m 213.86359,959.32853 c -0.036,-0.2362 -0.079,-0.4662 -0.13,-0.6875 0.051,0.2213 0.095,0.45 0.13,0.6875"
       style="fill:#e2ad4e;fill-opacity:1;fill-rule:nonzero;stroke:none"
       id="path8336"
       inkscape:connector-curvature="0" />
    <path
       d="m 256.92973,987.45873 c 0,0 4.06403,-6.4334 -10.30766,-5.8372 -11.29487,0.4685 -15.81522,18.51967 -19.20404,22.99477 -3.38875,4.4754 11.86554,15.8564 17.47825,15.9494 11.95547,0.1978 16.28565,-3.1547 13.39033,-7.2835"
       style="fill:#fbcb9d;fill-opacity:1;fill-rule:nonzero;stroke:none"
       id="path8340"
       inkscape:connector-curvature="0" />
    <path
       d="m 231.92948,998.46324 -15.83653,18.35776 10.06978,11.7726 15.05558,-11.4077 -9.28883,-18.72266"
       style="fill:#fbcb9d;fill-opacity:1;fill-rule:nonzero;stroke:none"
       id="path8342"
       inkscape:connector-curvature="0" />
    <path
       d="m 299.45064,1021.2465 c -0.15127,-2.5597 -0.41576,-5.3314 -0.76491,-8.2272 l 0.99055,0.2127 -0.408,4.0501 0.18236,3.9644"
       style="fill:#37a291;fill-opacity:1;fill-rule:nonzero;stroke:none"
       id="path8344"
       inkscape:connector-curvature="0" />
    <path
       d="m 299.51836,1022.722 c 0,0 -6.92581,-1.9684 -9.64267,-3.4811 -4.9419,-2.7507 -0.97418,-8.3206 -0.97418,-8.3206 l 9.78422,2.099 c 0.34915,2.8958 0.61364,5.6675 0.76491,8.2272 l 0.0677,1.4755"
       style="fill:#fab57c;fill-opacity:1;fill-rule:nonzero;stroke:none"
       id="path8346"
       inkscape:connector-curvature="0" />
    <path
       d="m 290.48295,988.25483 c 0,0 -1.46126,-2.804 -1.0208,-4.0906 0.40604,-1.1872 1.3558,-2.1647 2.62333,-2.8933 -0.0466,2.0679 -0.22675,4.3706 -0.58061,6.93 l -1.02192,0.054"
       style="fill:#faba83;fill-opacity:1;fill-rule:nonzero;stroke:none"
       id="path8348"
       inkscape:connector-curvature="0" />
    <path
       d="m 302.1514,987.63723 c 0.0927,-0.8566 0.17708,-1.7163 0.25174,-2.5798 l -0.16792,2.5755 -0.0838,0 m 0.53705,-6.9557 c 0.002,-0.062 0.005,-0.125 0.007,-0.1873 10e-4,5e-4 0.003,8e-4 0.004,0 l -0.0119,0.1857"
       style="fill:#3da995;fill-opacity:1;fill-rule:nonzero;stroke:none"
       id="path8350"
       inkscape:connector-curvature="0" />
    <path
       d="m 291.50487,988.20093 c 0.35386,-2.5594 0.53399,-4.8621 0.58061,-6.93 1.68191,-0.967 3.92446,-1.4957 6.20142,-1.4957 1.50539,0 3.02521,0.231 4.40904,0.719 -0.002,0.062 -0.005,0.125 -0.007,0.1873 l -0.28532,4.3759 c -0.0747,0.8635 -0.15903,1.7232 -0.25173,2.5798 l -10.64654,0.5637"
       style="fill:#6b2926;fill-opacity:1;fill-rule:nonzero;stroke:none"
       id="path8352"
       inkscape:connector-curvature="0" />
    <path
       d="m 291.38247,987.87323 c 0,0 -5.19199,-7.4627 10.05065,-6.5847 11.28793,0.6508 15.81521,18.52001 19.20428,22.99537 3.3888,4.4748 -11.86605,15.8561 -17.47852,15.9494 -11.95515,0.1978 -16.55181,-3.4492 -13.2621,-8.8594"
       style="fill:#fbcb9d;fill-opacity:1;fill-rule:nonzero;stroke:none"
       id="path8354"
       inkscape:connector-curvature="0" />
    <path
       d="m 316.8631,999.39064 15.57292,14.94976 -10.54356,13.9202 -15.05531,-11.4073 10.02595,-17.46266"
       style="fill:#fbcb9d;fill-opacity:1;fill-rule:nonzero;stroke:none"
       id="path8356"
       inkscape:connector-curvature="0" />
    <path
       d="m 266.08033,1008.8155 c 0,0 5.57524,-5.9159 9.42639,-5.9159 4.52592,0 9.42707,5.5559 9.42707,5.5559 l -0.54848,-17.39227 c 0,0 -4.53861,-3.377 -8.87859,-3.377 -5.70316,0 -9.12611,4.3403 -9.12611,4.3403 l -0.30028,16.78897"
       style="fill:#50463b;fill-opacity:1;fill-rule:nonzero;stroke:none"
       id="path8358"
       inkscape:connector-curvature="0" />
    <path
       d="m 270.23429,999.82994 c 0,4.48746 -2.41548,8.35526 -5.86225,10.08396 l 0,0.01 -6.08543,3.3631 c 3.87341,-2.5049 6.48203,-7.1865 6.48203,-12.5325 0,-6.34366 -3.67523,-11.75107 -8.77871,-13.69567 l 6.83952,2.0776 0,0.01 c 4.25056,1.2352 7.40484,5.55711 7.40484,10.69261"
       style="fill:#6b6760;fill-opacity:1;fill-rule:nonzero;stroke:none"
       id="path8360"
       inkscape:connector-curvature="0" />
    <path
       d="m 264.76864,1000.7498 c 0,5.346 -2.60862,10.0276 -6.48203,12.5324 -0.49127,0.3212 -1.00191,0.6037 -1.53258,0.8418 l -0.0148,0.012 c -1.51759,0.7028 -3.18396,1.091 -4.93001,1.091 -7.14173,0 -12.95456,-6.4932 -12.95456,-14.477 0,-7.97827 5.81283,-14.47177 12.95456,-14.47177 0.65473,0 1.28973,0.055 1.91449,0.161 0.22319,0.039 0.45127,0.083 0.66942,0.133 0.0297,0.01 0.0549,0.011 0.0797,0.016 0.50567,0.1162 0.99664,0.266 1.4779,0.4489 l 0.0393,0.017 c 5.10349,1.9446 8.77871,7.35201 8.77871,13.69567"
       style="fill:#50463b;fill-opacity:1;fill-rule:nonzero;stroke:none"
       id="path8362"
       inkscape:connector-curvature="0" />
    <path
       d="m 263.28072,1000.7523 c 0,7.076 -5.13479,12.8127 -11.46887,12.8127 -6.33467,0 -11.46976,-5.7367 -11.46976,-12.8127 0,-7.07576 5.13509,-12.81217 11.46976,-12.81217 6.33408,0 11.46887,5.73641 11.46887,12.81217"
       style="fill:#c3ebe7;fill-opacity:1;fill-rule:nonzero;stroke:none"
       id="path8364"
       inkscape:connector-curvature="0" />
    <path
       d="m 280.84609,999.52264 c 0,4.48786 2.41547,8.35496 5.862,10.08376 l 0,0 6.08568,3.3633 c -3.87338,-2.5045 -6.48228,-7.1861 -6.48228,-12.5324 0,-6.34406 3.67521,-11.75117 8.77895,-13.69577 l -6.83948,2.0776 0,0.01 c -4.2506,1.2355 -7.40487,5.55721 -7.40487,10.69301"
       style="fill:#6b6760;fill-opacity:1;fill-rule:nonzero;stroke:none"
       id="path8366"
       inkscape:connector-curvature="0" />
    <path
       d="m 286.31149,1000.4425 c 0,5.3464 2.6089,10.028 6.48228,12.5325 0.49125,0.3218 1.00138,0.6039 1.53259,0.8417 l 0.015,0.012 c 1.51788,0.7032 3.18397,1.0911 4.92999,1.0911 7.14145,0 12.9543,-6.4929 12.9543,-14.4771 0,-7.97847 -5.81285,-14.47167 -12.9543,-14.47167 -0.65528,0 -1.28974,0.055 -1.91449,0.1609 -0.22342,0.039 -0.45129,0.083 -0.66971,0.1327 -0.0297,0.01 -0.0544,0.011 -0.0794,0.016 -0.50568,0.1163 -0.99722,0.2663 -1.4782,0.4492 l -0.0391,0.017 c -5.10374,1.9446 -8.77895,7.35171 -8.77895,13.69577"
       style="fill:#50463b;fill-opacity:1;fill-rule:nonzero;stroke:none"
       id="path8368"
       inkscape:connector-curvature="0" />
    <path
       d="m 287.7994,1000.4453 c 0,7.0758 5.13481,12.8121 11.46944,12.8121 6.33408,0 11.46945,-5.7363 11.46945,-12.8121 0,-7.07566 -5.13537,-12.81237 -11.46945,-12.81237 -6.33463,0 -11.46944,5.73671 -11.46944,12.81237"
       style="fill:#c3ebe7;fill-opacity:1;fill-rule:nonzero;stroke:none"
       id="path8370"
       inkscape:connector-curvature="0" />
    <path
       d="m 278.15949,991.92263 c 0,1.51051 -1.096,2.73551 -2.4485,2.73551 -1.35242,0 -2.44871,-1.225 -2.44871,-2.73551 0,-1.5105 1.09629,-2.7358 2.44871,-2.7358 1.3525,0 2.4485,1.2253 2.4485,2.7358"
       style="fill:#6b6760;fill-opacity:1;fill-rule:nonzero;stroke:none"
       id="path8372"
       inkscape:connector-curvature="0" />
    <path
       d="m 253.10047,989.18683 c 0,0 6.97827,1.5539 8.30324,9.27551 0.23981,1.3986 -1.0888,2.70726 -1.85757,0 -0.85596,-3.0148 -3.28724,-6.16551 -6.4876,-7.37991 -2.53508,-0.9621 -2.33356,-2.2921 0.0416,-1.8956"
       style="fill:#ffffff;fill-opacity:1;fill-rule:nonzero;stroke:none"
       id="path8374"
       inkscape:connector-curvature="0" />
    <path
       d="m 301.13199,989.18683 c 0,0 6.97797,1.5539 8.30324,9.27551 0.2398,1.3986 -1.0888,2.70726 -1.85787,0 -0.85566,-3.0148 -3.28694,-6.16551 -6.48756,-7.37991 -2.53507,-0.9621 -2.33358,-2.2921 0.0422,-1.8956"
       style="fill:#ffffff;fill-opacity:1;fill-rule:nonzero;stroke:none"
       id="path8376"
       inkscape:connector-curvature="0" />
    <path
       d="m 291.86068,1006.7785 c 0,0 0.86953,3.6706 4.20477,4.148 0.60338,0.086 1.37855,-1.1883 0.24784,-1.6838 -1.42074,-0.6229 -2.16455,-0.9072 -2.77792,-2.5755 -0.48514,-1.3217 -1.91366,-1.1419 -1.67469,0.1113"
       style="fill:#ffffff;fill-opacity:1;fill-rule:nonzero;stroke:none"
       id="path8378"
       inkscape:connector-curvature="0" />
    <path
       d="m 243.34953,1006.7785 c 0,0 0.86931,3.6706 4.20426,4.148 0.60391,0.086 1.37855,-1.1883 0.24812,-1.6838 -1.42076,-0.6229 -2.16483,-0.9072 -2.77764,-2.5755 -0.4857,-1.3217 -1.91396,-1.1419 -1.67474,0.1113"
       style="fill:#ffffff;fill-opacity:1;fill-rule:nonzero;stroke:none"
       id="path8380"
       inkscape:connector-curvature="0" />
    <path
       d="m 309.54652,1046.3139 c 0.60394,0.3358 -1.50539,-0.4898 0,0 4.37686,1.4231 27.90164,7.0376 39.4674,12.5098 -3.03077,-2.134 -6.759,-5.6402 -6.759,-5.6402 l -32.7084,-6.8696"
       style="fill:#f3f2f0;fill-opacity:1;fill-rule:nonzero;stroke:none"
       id="path8382"
       inkscape:connector-curvature="0" />
    <path
       d="m 207.66676,1052.3526 c 0.18646,-0.1957 0.40876,-0.4301 0.65911,-0.6951 l 0,6e-4 c 0,0 16.11188,-11.5686 16.76105,-16.9239 0.0438,-0.3609 0.0497,-0.7326 0.0282,-1.1105 4.80788,-5.1842 8.68515,-9.3732 8.68515,-9.3732 l -12.31734,-15.4338 c 0,0 -4.26504,3.6452 -10.12669,8.8994 -0.2312,-0.09 -0.45877,-0.1727 -0.6778,-0.239 -5.04294,-1.5357 -27.45996,27.8462 -27.45996,27.8462 l 0.0104,0 c -1.06461,1.2576 -2.00849,2.4432 -2.79448,3.5292 -3.09448,4.2786 -6.54176,12.4729 -3.75232,19.4054 2.80583,6.976 11.92586,12.6745 34.07383,11.825 14.39617,-0.555 22.1424,-0.7813 26.29718,-0.8557 0.3497,-0.01 0.67439,-0.012 0.97698,-0.019 2.88641,-0.04 3.59138,0.01 3.73295,0.043 l 5.83672,-35.2888 -7.22721,1.5161 -32.70842,6.8705"
       style="fill:#96d021;fill-opacity:1;fill-rule:nonzero;stroke:none"
       id="path8384"
       inkscape:connector-curvature="0" />
    <path
       d="m 369.4838,1049.1815 c -0.786,-1.0861 -1.72992,-2.2717 -2.79458,-3.5295 l 0.0105,0 c 0,0 -22.41739,-29.3819 -27.46006,-27.8466 -0.21871,0.067 -0.44574,0.1491 -0.67638,0.239 -5.86198,-5.2552 -10.12725,-8.9006 -10.12725,-8.9006 l -12.31679,15.4338 c 0,0 3.87672,4.1886 8.68375,9.3725 -0.0217,0.3786 -0.0161,0.7506 0.0277,1.1124 0.64973,5.3557 16.76163,16.9239 16.76163,16.9239 l 0.003,-8e-4 c 0.25062,0.2653 0.47266,0.4997 0.65916,0.6954 l -32.7084,-6.8696 -7.68349,-1.5 6.29217,35.2733 c 0.33056,-0.087 3.75821,-0.2217 31.00873,0.8288 44.15703,1.698 36.52933,-22.6451 30.31987,-31.2295"
       style="fill:#96d021;fill-opacity:1;fill-rule:nonzero;stroke:none"
       id="path8386"
       inkscape:connector-curvature="0" />
  </g>
</svg>
