<?xml version="1.0" encoding="UTF-8" standalone="no"?>
<!-- Generator: Adobe Illustrator 19.0.0, SVG Export Plug-In . SVG Version: 6.00 Build 0)  -->

<svg
   xmlns:dc="http://purl.org/dc/elements/1.1/"
   xmlns:cc="http://creativecommons.org/ns#"
   xmlns:rdf="http://www.w3.org/1999/02/22-rdf-syntax-ns#"
   xmlns:svg="http://www.w3.org/2000/svg"
   xmlns="http://www.w3.org/2000/svg"
   xmlns:sodipodi="http://sodipodi.sourceforge.net/DTD/sodipodi-0.dtd"
   xmlns:inkscape="http://www.inkscape.org/namespaces/inkscape"
   version="1.1"
   id="Layer_1"
   x="24px"
   y="24px"
   viewBox="0 0 512 512"
   style="enable-background:new 0 0 512 512;"
   xml:space="preserve"
   inkscape:version="0.91 r13725"
   sodipodi:docname="share-outline.svg"><metadata
     id="metadata43"><rdf:RDF><cc:Work
         rdf:about=""><dc:format>image/svg+xml</dc:format><dc:type
           rdf:resource="http://purl.org/dc/dcmitype/StillImage" /></cc:Work></rdf:RDF></metadata><defs
     id="defs41" /><sodipodi:namedview
     pagecolor="#ffffff"
     bordercolor="#666666"
     borderopacity="1"
     objecttolerance="10"
     gridtolerance="10"
     guidetolerance="10"
     inkscape:pageopacity="0"
     inkscape:pageshadow="2"
     inkscape:window-width="1366"
     inkscape:window-height="742"
     id="namedview39"
     showgrid="false"
     inkscape:zoom="0.44806149"
     inkscape:cx="244.2913"
     inkscape:cy="386.83867"
     inkscape:window-x="-1"
     inkscape:window-y="0"
     inkscape:window-maximized="0"
     inkscape:current-layer="g5" /><g
     id="g3"><g
       id="g5"><path
         d="M 486.74965,240.50144 274.84156,28.593348 l 0,138.824842 c -63.4861,3.32855 -122.70038,29.63781 -167.99056,74.928 -48.550291,48.5494 -75.288065,113.09967 -75.288065,181.76085 l 0,53.72982 2.172094,-3.95915 23.67131,-43.14645 C 97.727703,357.23371 174.91296,311.57635 258.83801,311.57635 c 5.32178,0 10.672,0.18848 16.00355,0.56187 l 0,140.2713 z m -227.05589,33.26368 c -75.16182,0 -136.08747,26.71926 -184.342602,81.9222 C 99.029757,254.1798 213.36944,203.1561 292.03481,203.1561 l 18.69312,-0.9921 -2.48022,-81.99222 113.88016,118.61729 -109.24178,123.39204 0.9051,-83.35537 -21.99848,-4.38553 c -10.39194,-1.28643 -21.61099,-0.67509 -32.09895,-0.67509 z"
         id="path7"
         inkscape:connector-curvature="0"
         sodipodi:nodetypes="cccsscccscccscsccccccs" /></g></g><g
     id="g9" /><g
     id="g11" /><g
     id="g13" /><g
     id="g15" /><g
     id="g17" /><g
     id="g19" /><g
     id="g21" /><g
     id="g23" /><g
     id="g25" /><g
     id="g27" /><g
     id="g29" /><g
     id="g31" /><g
     id="g33" /><g
     id="g35" /><g
     id="g37" /></svg>